<svg width="196" height="196" viewBox="0 0 196 196" fill="none" xmlns="http://www.w3.org/2000/svg">
<path d="M6.79422 3.55312C7.88304 1.37545 10.1089 0 12.5451 0H27.8572V17.1428H0L6.79422 3.55312ZM32.1428 17.1428V0H47.4509C49.8884 0 52.1116 1.37545 53.2098 3.55312L60 17.1428H32.1428ZM60 51.4286C60 56.1562 56.1562 60 51.4286 60H8.57142C3.83705 60 0 56.1562 0 51.4286V21.4286H60V51.4286Z" fill="#BC6C25" fill-opacity="0.5"/>
<path d="M6.79422 71.5531C7.88304 69.3754 10.1089 68 12.5451 68H27.8572V85.1428H0L6.79422 71.5531ZM32.1428 85.1428V68H47.4509C49.8884 68 52.1116 69.3754 53.2098 71.5531L60 85.1428H32.1428ZM60 119.429C60 124.156 56.1562 128 51.4286 128H8.57142C3.83705 128 0 124.156 0 119.429V89.4286H60V119.429Z" fill="#BC6C25" fill-opacity="0.5"/>
<path d="M142.794 139.553C143.883 137.375 146.109 136 148.545 136H163.857V153.143H136L142.794 139.553ZM168.143 153.143V136H183.451C185.888 136 188.112 137.375 189.21 139.553L196 153.143H168.143ZM196 187.429C196 192.156 192.156 196 187.429 196H144.571C139.837 196 136 192.156 136 187.429V157.429H196V187.429Z" fill="#BC6C25" fill-opacity="0.5"/>
<path d="M74.7942 139.553C75.883 137.375 78.1089 136 80.5451 136H95.8572V153.143H68L74.7942 139.553ZM100.143 153.143V136H115.451C117.888 136 120.112 137.375 121.21 139.553L128 153.143H100.143ZM128 187.429C128 192.156 124.156 196 119.429 196H76.5714C71.8371 196 68 192.156 68 187.429V157.429H128V187.429Z" fill="#BC6C25" fill-opacity="0.5"/>
<path d="M6.79422 139.553C7.88304 137.375 10.1089 136 12.5451 136H27.8572V153.143H0L6.79422 139.553ZM32.1428 153.143V136H47.4509C49.8884 136 52.1116 137.375 53.2098 139.553L60 153.143H32.1428ZM60 187.429C60 192.156 56.1562 196 51.4286 196H8.57142C3.83705 196 0 192.156 0 187.429V157.429H60V187.429Z" fill="#BC6C25" fill-opacity="0.5"/>
<path d="M142.794 71.5531C143.883 69.3754 146.109 68 148.545 68H163.857V85.1428H136L142.794 71.5531ZM168.143 85.1428V68H183.451C185.888 68 188.112 69.3754 189.21 71.5531L196 85.1428H168.143ZM196 119.429C196 124.156 192.156 128 187.429 128H144.571C139.837 128 136 124.156 136 119.429V89.4286H196V119.429Z" fill="#BC6C25" fill-opacity="0.5"/>
<path d="M74.7942 71.5531C75.883 69.3754 78.1089 68 80.5451 68H95.8572V85.1428H68L74.7942 71.5531ZM100.143 85.1428V68H115.451C117.888 68 120.112 69.3754 121.21 71.5531L128 85.1428H100.143ZM128 119.429C128 124.156 124.156 128 119.429 128H76.5714C71.8371 128 68 124.156 68 119.429V89.4286H128V119.429Z" fill="#BC6C25" fill-opacity="0.5"/>
<path d="M74.7942 3.55312C75.883 1.37545 78.1089 0 80.5451 0H95.8572V17.1428H68L74.7942 3.55312ZM100.143 17.1428V0H115.451C117.888 0 120.112 1.37545 121.21 3.55312L128 17.1428H100.143ZM128 51.4286C128 56.1562 124.156 60 119.429 60H76.5714C71.8371 60 68 56.1562 68 51.4286V21.4286H128V51.4286Z" fill="#BC6C25" fill-opacity="0.5"/>
<path d="M142.794 3.55312C143.883 1.37545 146.109 0 148.545 0H163.857V17.1428H136L142.794 3.55312ZM168.143 17.1428V0H183.451C185.888 0 188.112 1.37545 189.21 3.55312L196 17.1428H168.143ZM196 51.4286C196 56.1562 192.156 60 187.429 60H144.571C139.837 60 136 56.1562 136 51.4286V21.4286H196V51.4286Z" fill="#BC6C25" fill-opacity="0.5"/>
</svg>
