<svg width="174" height="174" viewBox="0 0 174 174" fill="none" xmlns="http://www.w3.org/2000/svg">
<path d="M9.05896 4.7375C10.5107 1.83393 13.4786 0 16.7268 0H37.1429V22.8571H0L9.05896 4.7375ZM42.8571 22.8571V0H63.2678C66.5178 0 69.4822 1.83393 70.9464 4.7375L80 22.8571H42.8571ZM80 68.5714C80 74.875 74.875 80 68.5714 80H11.4286C5.11607 80 0 74.875 0 68.5714V28.5714H80V68.5714Z" fill="#BC6C25" fill-opacity="0.5"/>
<path d="M103.059 98.7375C104.511 95.8339 107.479 94 110.727 94H131.143V116.857H94L103.059 98.7375ZM136.857 116.857V94H157.268C160.518 94 163.482 95.8339 164.946 98.7375L174 116.857H136.857ZM174 162.571C174 168.875 168.875 174 162.571 174H105.429C99.1161 174 94 168.875 94 162.571V122.571H174V162.571Z" fill="#BC6C25" fill-opacity="0.5"/>
<path d="M9.05896 98.7375C10.5107 95.8339 13.4786 94 16.7268 94H37.1429V116.857H0L9.05896 98.7375ZM42.8571 116.857V94H63.2678C66.5178 94 69.4822 95.8339 70.9464 98.7375L80 116.857H42.8571ZM80 162.571C80 168.875 74.875 174 68.5714 174H11.4286C5.11607 174 0 168.875 0 162.571V122.571H80V162.571Z" fill="#BC6C25" fill-opacity="0.5"/>
<path d="M103.059 4.7375C104.511 1.83393 107.479 0 110.727 0H131.143V22.8571H94L103.059 4.7375ZM136.857 22.8571V0H157.268C160.518 0 163.482 1.83393 164.946 4.7375L174 22.8571H136.857ZM174 68.5714C174 74.875 168.875 80 162.571 80H105.429C99.1161 80 94 74.875 94 68.5714V28.5714H174V68.5714Z" fill="#BC6C25" fill-opacity="0.5"/>
</svg>
