<svg width="314" height="294" viewBox="0 0 314 294" fill="none" xmlns="http://www.w3.org/2000/svg">
<path d="M156.896 31.4347C153.312 30.9908 150.57 31.3179 147.311 32.5392C141.759 34.6144 137.222 38.7522 133.89 44.7856C131.454 49.2188 130.538 53.5374 131.099 58.0204C131.364 60.219 131.705 61.4082 132.629 63.2688C134.296 66.6414 136.669 68.9529 139.732 70.1407C141.437 70.8022 142.76 70.9815 144.992 70.8829C152.787 70.5308 160.033 65.7743 164.388 58.1905C166.159 55.0938 167.698 50.1457 167.851 46.9779C168.116 41.8325 165.886 36.7577 162.01 33.6965C160.816 32.751 158.188 31.5836 156.896 31.4347Z" fill="black"/>
<path d="M112.872 14.9908C107.915 14.5521 102.735 16.9753 99.4715 21.2549C99.0135 21.8376 98.1252 23.3662 97.4842 24.6383C93.6744 32.2853 93.6475 41.5477 97.4435 48.7321C98.9484 51.5969 101.513 54.5575 103.868 56.1569C107.241 58.448 112.85 58.4539 116.816 56.1714C120.615 53.9914 123.263 50.753 125.102 46.0135C126.19 43.2085 126.722 40.8558 126.959 37.9616C127.648 29.4938 124.784 22.2445 118.848 17.5314C117.398 16.3754 114.483 15.1335 112.872 14.9908Z" fill="black"/>
<path d="M171.73 73.204C167.169 72.3438 161.81 73.2697 157.5 75.6228C153.203 77.9991 149.892 81.2588 147.259 85.7086C145.775 88.2301 145.344 89.2869 144.929 91.4443C144.285 94.8477 144.695 98.1411 146.115 100.899C147.1 102.82 148.23 104.149 149.871 105.249C153.573 107.779 159.486 108.255 165.011 106.466C168.575 105.326 173.061 102.355 175.72 99.3618C178.174 96.6232 180.356 92.74 181.12 89.7908C181.802 87.1622 181.753 83.9162 181.005 81.4378C180.748 80.5777 179.727 78.5867 179.078 77.6488C177.537 75.4194 174.803 73.7655 171.73 73.204Z" fill="black"/>
<path d="M76.0701 38.3469C71.1499 37.1619 66.5726 38.4652 63.8558 41.8254C61.8135 44.3715 60.3992 47.3653 59.7372 50.5951C58.56 56.2958 59.3497 62.1472 62.0024 67.2747C63.8275 70.783 65.8326 73.1741 68.9231 75.5411C72.5929 78.3183 76.5737 78.8793 80.6387 77.2104C84.1011 75.7899 86.0297 73.7004 87.9637 69.2577C88.8186 67.2711 89.0696 66.5153 89.3835 64.7268C90.3943 59.1286 89.5397 53.7712 86.8206 48.4882C84.9898 44.9406 82.4812 41.8349 80.2059 40.3033C79.2056 39.6186 76.9391 38.5541 76.0701 38.3469Z" fill="black"/>
<path d="M115.491 77.4302C106.478 75.0474 96.3599 76.1676 88.6028 80.4475C82.034 84.0571 76.4109 88.2745 72.0169 92.9129C69.063 96.0143 65.8235 100.396 65.0795 102.314C63.3913 106.667 64.8883 112.218 68.6281 115.467C70.0656 116.711 72.0378 117.772 74.038 118.381C77.6345 119.498 80.2374 119.858 87.3587 120.209C94.9765 120.586 96.8812 120.843 101.078 121.988C106.823 123.549 110.247 125.656 117.14 131.816C123.236 137.259 124.688 138.304 127.677 139.463C133.27 141.632 138.745 140.789 141.653 137.317C142.692 136.051 144.13 132.454 144.315 130.616C144.785 125.976 144.308 120.951 142.856 115.121C139.595 102.042 136.209 94.1823 131.011 87.6224C128.703 84.7058 126.273 82.5394 123.228 80.7091C121.659 79.7485 117.345 77.9267 115.491 77.4302Z" fill="black"/>
<path d="M234.273 174.408C226.281 173.311 218.305 177.339 213.023 185.138C208.435 191.908 207.26 198.908 209.641 205.173C211.294 209.504 215.313 213.066 219.293 213.738C220.781 213.982 223.946 213.818 225.923 213.398C231.29 212.234 236.225 209.029 239.736 204.438C241.662 201.921 242.638 200.055 243.798 196.74C245.37 192.25 245.695 189.835 245.162 186.476C244.636 183.156 243.284 180.332 241.179 178.143C239.22 176.122 236.656 174.738 234.273 174.408Z" fill="black"/>
<path d="M191.4 158.151C186.981 157.197 181.639 159.112 178.116 162.92C175.18 166.084 172.731 172.126 172.269 177.288C171.524 185.901 174.452 193.472 180.448 198.413C181.739 199.488 183.792 200.396 185.574 200.698C191.146 201.616 196.61 198.951 200.447 193.41C201.674 191.66 203.417 187.44 203.926 184.985C205.954 175.349 203.403 166.478 197.062 161.07C196.032 160.188 193.555 158.634 192.918 158.48C192.845 158.451 192.159 158.315 191.4 158.151Z" fill="black"/>
<path d="M250.656 216.481C242.047 214.255 232.503 218.027 226.515 226.016C224.836 228.277 223.312 231.172 222.776 233.153C221.773 236.881 222.016 240.499 223.495 243.539C225.264 247.192 227.787 249.172 231.826 250.071C240.083 251.901 249.574 247.775 255.139 239.955C256.434 238.139 257.958 235.133 258.499 233.302C259.933 228.517 258.907 223.112 255.916 219.782C254.548 218.25 252.461 216.94 250.656 216.481Z" fill="black"/>
<path d="M152.462 181.086C149.181 180.462 145.515 181.266 143.184 183.088C140.131 185.465 137.63 190.337 136.936 195.279C136.437 198.851 136.923 203.583 138.111 206.992C140.59 214.037 146.54 220.072 151.959 221.005C153.759 221.314 155.533 221.093 157.721 220.291C161.625 218.875 163.857 216.44 165.794 211.553C167.819 206.385 167.868 200.711 165.919 194.911C165.194 192.756 163.283 189.196 161.923 187.482C158.917 183.645 156.124 181.764 152.462 181.086Z" fill="black"/>
<path d="M192.63 220.311C186.358 218.694 179.699 218.782 173.126 220.554C170.275 221.322 167.956 222.351 164.409 224.425C156.127 229.243 150.413 234.185 145.359 240.905C143.595 243.225 143.253 243.778 142.653 245.326C142.103 246.745 141.945 247.37 141.918 248.472C141.787 252.78 143.58 256.535 146.97 259.055C148.03 259.856 148.611 260.155 150.499 260.888C154.369 262.388 156.794 262.773 165.319 263.204C173.071 263.615 174.657 263.822 178.879 265.014C184.507 266.603 187.936 268.749 195.207 275.242C201.279 280.638 202.743 281.651 206.076 282.74C209.556 283.885 212.382 283.943 215.203 282.923C218.314 281.811 219.952 279.98 221.157 276.33C222.876 271.081 222.2 264.068 218.837 252.34C216.137 242.874 212.975 236.176 208.62 230.704C206.264 227.75 203.999 225.703 201.015 223.822C199.538 222.897 194.533 220.789 192.63 220.311Z" fill="black"/>
</svg>
