<svg width="160" height="160" viewBox="0 0 160 160" fill="none" xmlns="http://www.w3.org/2000/svg">
<path d="M79.947 17.1073C78.1208 16.8657 76.7236 17.0438 75.0629 17.7084C72.2339 18.8378 69.922 21.0896 68.2242 24.3731C66.9829 26.7857 66.5162 29.136 66.802 31.5757C66.9371 32.7722 67.1108 33.4194 67.5817 34.432C68.4311 36.2674 69.6403 37.5254 71.201 38.1718C72.0698 38.5318 72.744 38.6294 73.8813 38.5757C77.8533 38.3841 81.5455 35.7955 83.7646 31.6683C84.667 29.983 85.4512 27.2902 85.5292 25.5662C85.6642 22.766 84.5279 20.0042 82.5529 18.3382C81.9445 17.8237 80.6054 17.1884 79.947 17.1073Z" fill="black" fill-opacity="0.8"/>
<path d="M57.5144 8.15825C54.9885 7.91951 52.349 9.23825 50.6861 11.5673C50.4527 11.8844 50.0001 12.7163 49.6735 13.4086C47.7322 17.5702 47.7185 22.611 49.6527 26.5209C50.4196 28.0799 51.7264 29.6912 52.9264 30.5616C54.6451 31.8084 57.5032 31.8116 59.5241 30.5695C61.4599 29.3831 62.8092 27.6207 63.7462 25.0414C64.3006 23.5148 64.5717 22.2344 64.6925 20.6594C65.0436 16.051 63.5842 12.1058 60.5595 9.54089C59.8206 8.91178 58.3353 8.23591 57.5144 8.15825Z" fill="black" fill-opacity="0.8"/>
<path d="M87.5057 39.8389C85.1817 39.3708 82.451 39.8747 80.2548 41.1553C78.0652 42.4485 76.3781 44.2225 75.0364 46.6441C74.2803 48.0164 74.0606 48.5915 73.8492 49.7656C73.521 51.6178 73.7299 53.4101 74.4535 54.911C74.9554 55.9565 75.5312 56.6797 76.3674 57.2784C78.2538 58.6552 81.2668 58.9143 84.082 57.9407C85.8981 57.3203 88.184 55.7034 89.5389 54.0745C90.7893 52.5841 91.9011 50.4708 92.2904 48.8657C92.638 47.4352 92.613 45.6687 92.2319 44.3199C92.1009 43.8518 91.5806 42.7683 91.2499 42.2579C90.4647 41.0446 89.0716 40.1445 87.5057 39.8389Z" fill="black" fill-opacity="0.8"/>
<path d="M38.7618 20.869C36.2547 20.2242 33.9223 20.9334 32.538 22.7621C31.4973 24.1477 30.7767 25.777 30.4393 27.5347C29.8395 30.6372 30.2419 33.8216 31.5936 36.6121C32.5236 38.5213 33.5453 39.8226 35.1201 41.1108C36.99 42.6222 39.0184 42.9275 41.0898 42.0193C42.8541 41.2462 43.8368 40.109 44.8223 37.6913C45.2579 36.6101 45.3858 36.1988 45.5457 35.2255C46.0608 32.1788 45.6253 29.2632 44.2398 26.3881C43.3069 24.4575 42.0286 22.7673 40.8692 21.9338C40.3595 21.5611 39.2046 20.9818 38.7618 20.869Z" fill="black" fill-opacity="0.8"/>
<path d="M58.8489 42.1389C54.2563 40.8421 49.1006 41.4518 45.1479 43.781C41.8008 45.7454 38.9355 48.0405 36.6965 50.5648C35.1913 52.2527 33.5406 54.6373 33.1615 55.6811C32.3013 58.0501 33.0641 61.071 34.9697 62.8392C35.7022 63.5162 36.7072 64.0936 37.7264 64.425C39.559 65.0329 40.8853 65.2288 44.514 65.4199C48.3957 65.625 49.3662 65.7649 51.5047 66.388C54.4321 67.2376 56.1768 68.3842 59.6892 71.7366C62.7954 74.6988 63.5353 75.2675 65.0583 75.8982C67.9083 77.0786 70.6981 76.6199 72.1799 74.7303C72.7093 74.0414 73.442 72.0838 73.5363 71.0835C73.7758 68.5584 73.5327 65.8237 72.7929 62.6509C71.1312 55.5331 69.4059 51.2557 66.7572 47.6857C65.5811 46.0984 64.3429 44.9194 62.7913 43.9233C61.9918 43.4005 59.7936 42.4091 58.8489 42.1389Z" fill="black" fill-opacity="0.8"/>
<path d="M119.375 94.9159C115.302 94.3189 111.238 96.511 108.547 100.755C106.209 104.44 105.61 108.249 106.823 111.659C107.666 114.016 109.714 115.954 111.742 116.32C112.5 116.453 114.113 116.364 115.12 116.135C117.855 115.501 120.369 113.757 122.158 111.259C123.14 109.889 123.637 108.873 124.228 107.069C125.029 104.626 125.195 103.312 124.923 101.484C124.655 99.6767 123.966 98.1399 122.894 96.9486C121.896 95.8487 120.589 95.0955 119.375 94.9159Z" fill="black" fill-opacity="0.8"/>
<path d="M97.5287 86.0686C95.2769 85.5494 92.5549 86.5916 90.7597 88.664C89.2637 90.3859 88.0158 93.674 87.7804 96.4833C87.4008 101.171 88.8927 105.291 91.948 107.98C92.6059 108.565 93.652 109.059 94.56 109.223C97.3992 109.723 100.183 108.273 102.139 105.257C102.764 104.305 103.652 102.008 103.911 100.672C104.945 95.428 103.645 90.6003 100.414 87.6572C99.8889 87.1772 98.6268 86.3314 98.3022 86.2476C98.265 86.2318 97.9154 86.1578 97.5287 86.0686Z" fill="black" fill-opacity="0.8"/>
<path d="M127.723 117.813C123.336 116.601 118.473 118.654 115.422 123.002C114.566 124.232 113.79 125.808 113.516 126.886C113.005 128.915 113.129 130.884 113.883 132.538C114.784 134.526 116.07 135.604 118.128 136.093C122.335 137.089 127.171 134.844 130.007 130.588C130.667 129.599 131.444 127.964 131.719 126.967C132.45 124.363 131.927 121.421 130.403 119.609C129.706 118.776 128.643 118.063 127.723 117.813Z" fill="black" fill-opacity="0.8"/>
<path d="M77.6876 98.5502C76.0158 98.2106 74.1478 98.6482 72.96 99.6397C71.4043 100.933 70.1299 103.585 69.7763 106.274C69.522 108.218 69.7697 110.793 70.375 112.649C71.6382 116.483 74.6701 119.767 77.4313 120.275C78.3485 120.443 79.2525 120.323 80.3674 119.886C82.3567 119.116 83.494 117.79 84.481 115.131C85.5129 112.318 85.5378 109.23 84.5447 106.074C84.1753 104.901 83.2015 102.964 82.5085 102.031C80.9768 99.9429 79.5536 98.9192 77.6876 98.5502Z" fill="black" fill-opacity="0.8"/>
<path d="M98.1554 119.897C94.9595 119.017 91.5664 119.065 88.2171 120.029C86.7643 120.447 85.5827 121.007 83.7753 122.136C79.5552 124.758 76.6436 127.448 74.0683 131.105C73.1694 132.367 72.9952 132.668 72.6894 133.511C72.4092 134.283 72.3287 134.623 72.3149 135.223C72.2482 137.567 73.1618 139.611 74.8892 140.982C75.4293 141.418 75.7254 141.581 76.6874 141.98C78.6594 142.796 79.895 143.006 84.239 143.24C88.189 143.464 88.9972 143.577 91.1485 144.225C94.0163 145.09 95.7636 146.258 99.4685 149.792C102.563 152.728 103.309 153.279 105.007 153.872C106.78 154.495 108.22 154.527 109.658 153.972C111.243 153.367 112.077 152.37 112.691 150.384C113.567 147.527 113.223 143.71 111.509 137.328C110.134 132.176 108.522 128.531 106.303 125.553C105.103 123.946 103.949 122.832 102.428 121.808C101.675 121.304 99.1251 120.157 98.1554 119.897Z" fill="black" fill-opacity="0.8"/>
</svg>
