<svg width="110" height="178" viewBox="0 0 110 178" fill="none" xmlns="http://www.w3.org/2000/svg">
<path d="M0.940795 174.325C0.940795 174.325 -3.32895 176.198 8.32237 176.775C19.9737 177.351 81.6316 177.64 88 176.775C94.3684 175.91 106.671 176.415 90.3158 174.325C73.9605 172.235 57.0987 173.46 40.5987 172.235C24.0987 171.01 3.40132 172.163 0.940795 174.325Z" fill="#1B1C1E"/>
<path d="M86.4079 138.22C86.4079 138.22 92.9211 135.266 94.0066 120.132C95.0921 104.998 88.4342 92.8194 87.7829 73.6502C87.1316 54.481 97.9868 43.6712 106.382 49.8688C114.776 56.0664 102.184 68.1733 104.5 93.1798C106.816 118.114 107.467 143.337 87.5658 149.823C87.6382 149.823 84.2368 145.138 86.4079 138.22Z" fill="#513F3B"/>
<path d="M33.8684 174.397C33.8684 174.397 8.75658 174.397 7.23684 174.397C5.71711 174.397 3.83553 163.011 17.1513 162.794C30.4671 162.578 38.5 162.794 38.5 162.794L33.8684 174.397Z" fill="#513F3B"/>
<path d="M10.7829 174.397C10.7829 174.397 10.0592 171.658 12.0855 169.713" stroke="#1B1C1E" stroke-miterlimit="10"/>
<path d="M15.5592 174.397C15.5592 174.397 15.5592 172.163 16.5724 171.154" stroke="#1B1C1E" stroke-miterlimit="10"/>
<path d="M24.9671 12.179C24.9671 12.179 16.1382 -0.7927 10.4211 0.432404C4.70394 1.6575 3.9079 28.3935 8.90132 30.051C13.8224 31.7806 24.9671 12.179 24.9671 12.179Z" fill="#513F3B"/>
<path d="M50.875 13.1158C50.875 13.1158 62.5263 4.75626 69.6184 5.26072C76.7829 5.6931 69.4737 26.736 64.1908 32.1409C58.9079 37.5457 50.875 13.1158 50.875 13.1158Z" fill="#513F3B"/>
<path d="M18.3092 57.5798C18.3092 57.5798 8.97369 51.8866 7.45395 39.996C5.93421 28.1053 11.3618 9.29636 37.4145 9.29636C63.4671 9.29636 68.3882 30.9879 66.5066 42.1579C64.7697 52.7514 59.4145 56.0664 59.4145 56.0664C59.4145 56.0664 65.2039 69.1101 68.0987 76.749C70.3421 82.6583 71.4276 88.7117 70.5592 95.7741C70.5592 95.7741 79.2434 108.602 84.6711 119.267C89.8816 129.5 94.2237 155.155 89.5197 172.523C89.2303 173.676 88.1447 174.469 86.9868 174.469H18.4539C12.375 174.469 5.2829 164.524 10.8553 125.104C10.8553 125.104 7.96053 118.33 10.4934 104.278C13.0263 90.2251 18.3092 57.5798 18.3092 57.5798Z" fill="#FFE6BD"/>
<path d="M78.5921 174.397C78.5921 174.397 74.1776 174.397 72.875 174.397H40.9605C37.2697 164.812 48.4868 161.209 54.2039 161.209C58.6184 161.209 68.75 161.209 68.75 161.209C68.75 161.209 74.1776 161.425 76.4934 165.172C79.2434 169.568 78.7368 174.181 78.5921 174.397Z" fill="#513F3B"/>
<path d="M26.0526 127.483C23.375 129.356 20.9145 130.437 19.1776 131.086C17.2961 131.734 15.1974 131.302 13.8224 129.789C11.9408 127.771 10.7829 125.032 10.7829 125.032C10.7829 125.032 8.90132 120.636 9.48026 111.628C9.48026 111.628 9.69737 105.719 17.9474 103.917C24.0987 102.548 27.4276 105.503 27.4276 105.503C27.2829 106.656 27.0658 107.809 26.8487 109.106C26.125 113.43 26.9934 120.925 27.4276 124.384C27.5724 125.537 27.0658 126.762 26.0526 127.483Z" fill="#513F3B"/>
<path d="M10.7829 125.104C10.7829 125.104 11.9408 127.843 13.8224 129.861C15.1974 131.302 17.2961 131.806 19.1776 131.086C20.9145 130.437 23.375 129.356 26.0526 127.483C27.0658 126.762 27.5724 125.609 27.3553 124.384C26.9211 120.925 26.125 113.43 26.7763 109.106C27.7171 103.341 28.2961 98.6567 28.2961 98.6567" stroke="#1B1C1E" stroke-miterlimit="10"/>
<path d="M19.5395 130.87C19.5395 130.87 16.6447 128.636 16.2829 124.6" stroke="#1B1C1E" stroke-miterlimit="10"/>
<path d="M24.0987 128.708C24.0987 128.708 21.9276 126.69 21.7105 123.159" stroke="#1B1C1E" stroke-miterlimit="10"/>
<path d="M60.0658 109.538C55 112.637 52.3947 114.439 52.6842 117.898C53.0461 121.934 49.9342 122.294 48.5592 122.654C46.5329 123.159 42.6974 123.519 39.7303 123.159C38.4276 123.015 35.8947 120.636 35.8947 115.304C35.8947 110.403 39.875 102.044 47.5461 97.7919C47.5461 97.7919 53.8421 96.5668 58.0395 101.395C60.7895 104.638 60.0658 109.538 60.0658 109.538Z" fill="#513F3B"/>
<path d="M70.5592 95.7741C70.5592 95.7741 69.6184 103.557 62.7434 107.881C55.8684 112.205 52.25 113.934 52.6118 117.97C52.9737 122.006 49.8618 122.366 48.4868 122.726C46.4605 123.231 42.625 123.591 39.6579 123.231C38.3553 123.087 35.8224 120.709 35.8224 115.376C35.8224 110.475 39.8026 102.116 47.4737 97.864" stroke="#1B1C1E" stroke-miterlimit="10"/>
<path d="M44.1447 123.231C44.1447 123.231 40.5987 122.438 40.8158 117.033" stroke="#1B1C1E" stroke-miterlimit="10"/>
<path d="M48.5592 122.654C48.5592 122.654 46.2434 121.069 46.5329 117.033" stroke="#1B1C1E" stroke-miterlimit="10"/>
<path d="M77.7961 120.997C77.7961 120.997 71.2829 112.998 61.079 118.763C51.6711 124.096 49.3553 148.67 57.3882 161.137" stroke="#1B1C1E" stroke-miterlimit="10"/>
<path d="M41.0329 174.397C37.3421 164.812 48.5592 161.209 54.2763 161.209C58.6908 161.209 68.8224 161.209 68.8224 161.209" stroke="#1B1C1E" stroke-miterlimit="10"/>
<path d="M46.1711 174.397C46.1711 174.397 44.3618 171.586 46.1711 169.713" stroke="#1B1C1E" stroke-miterlimit="10"/>
<path d="M50.2961 174.397C50.2961 174.397 49.8618 171.226 51.0921 170.145" stroke="#1B1C1E" stroke-miterlimit="10"/>
<path d="M36.9079 55.4178C36.9079 55.4178 24.0263 52.6073 18.3092 44.7522C12.5921 36.8972 15.8487 25.6551 17.2237 23.7814C18.5987 21.9798 20.0461 15.4219 38.7895 16.2866C53.4803 17.0073 58.8355 24.8623 59.7039 30.1231C60.5 34.8794 59.2697 43.7433 53.8421 48.0672C46.1711 54.1927 36.9079 55.4178 36.9079 55.4178Z" fill="#513F3B"/>
<path d="M30.25 30.3393C30.4671 29.9789 30.4671 29.6186 30.25 29.2583C29.5263 28.1773 27.7895 25.6551 25.4737 25.7992C22.7237 25.9433 20.6974 28.898 20.6974 29.8348C20.6974 31.0599 22.5789 33.7984 25.4013 34.0866C27.5724 34.2308 29.5263 31.4923 30.25 30.3393Z" fill="#9BBEDC"/>
<path d="M25.4013 32.8615C26.6801 32.8615 27.7171 31.4743 27.7171 29.7628C27.7171 28.0512 26.6801 26.664 25.4013 26.664C24.1226 26.664 23.0855 28.0512 23.0855 29.7628C23.0855 31.4743 24.1226 32.8615 25.4013 32.8615Z" fill="#1B1C1E"/>
<path d="M34.9539 33.366C34.9539 33.366 31.1184 33.0777 28.9474 35.3117C26.7763 37.5458 27.1382 41.2211 29.3092 42.5903C31.2632 43.8875 32.2763 40.7887 34.9539 40.6445C37.6316 40.5004 37.3421 38.5547 37.4868 36.6089C37.5592 34.7352 34.9539 33.366 34.9539 33.366Z" stroke="#1B1C1E" stroke-miterlimit="10"/>
<path d="M37.2697 39.1312C37.2697 39.1312 37.125 40.4283 38.5724 41.0769C40.0197 41.7976 41.25 41.5814 42.7697 43.3109C44.2895 44.9684 47.2566 43.0227 47.2566 39.8518C47.2566 36.2486 44.8684 33.7263 40.5263 33.5822C36.1842 33.4381 37.6316 35.0235 37.6316 35.0235L37.2697 39.1312Z" stroke="#1B1C1E" stroke-miterlimit="10"/>
<path d="M31.625 42.3741C31.625 42.3741 33.4342 44.8964 36.4737 45.1846C39.2961 45.4729 41.8289 43.7433 42.2632 42.8785" stroke="#1B1C1E" stroke-miterlimit="10"/>
<path d="M37.4868 36.681C37.4868 36.681 34.375 34.7352 33.9408 33.0777C33.5066 31.4923 34.375 30.4834 37.9934 30.6275C40.9605 30.7717 42.2632 31.9247 41.1053 33.7984C39.9474 35.4559 37.4868 36.681 37.4868 36.681Z" fill="#1B1C1E" stroke="#1B1C1E" stroke-miterlimit="10"/>
<g opacity="0.88">
<path d="M66 105.719C66.0724 105.719 66.0724 105.719 66.1447 105.791C66.1447 105.791 66.0724 105.791 66 105.719Z" fill="#443730"/>
<path d="M61.8026 108.962L61.6579 108.818C61.8026 108.89 61.8026 108.962 61.8026 108.962Z" fill="#443730"/>
<path d="M68.6045 101.755C68.5329 101.683 68.5329 101.683 68.6045 101.755C68.5329 101.683 68.5329 101.683 68.6045 101.755Z" fill="#443730"/>
<path d="M68.9671 101.539C68.9671 101.539 68.9671 101.467 69.0395 101.467L68.9671 101.539C69.0395 101.539 69.1118 101.467 68.9671 101.539Z" fill="#443730"/>
<path d="M71.9342 100.17L72.0789 100.242C72.0066 100.242 71.9342 100.242 71.9342 100.17Z" fill="#443730"/>
<path d="M68.3882 101.683C68.4605 101.683 68.4605 101.683 68.5329 101.683C68.4605 101.683 68.3882 101.755 68.3882 101.683Z" fill="#443730"/>
<path d="M65.9276 105.647C65.9993 105.719 65.9993 105.719 65.9276 105.647C65.9993 105.719 65.9993 105.719 65.9276 105.647Z" fill="#443730"/>
<path d="M59.8487 109.683C59.7763 109.683 59.7763 109.683 59.7039 109.683C59.7763 109.611 59.8487 109.683 59.8487 109.683Z" fill="#443730"/>
<path d="M68.171 103.053C68.5329 103.341 68.3158 102.909 68.6776 103.197C68.5329 103.197 68.4605 103.269 68.6053 103.413C68.8947 103.485 68.6776 103.197 69.0395 103.413L68.8224 103.485C68.9671 103.701 69.2566 103.773 69.1842 103.773C68.6776 103.557 69.1118 104.278 68.9671 104.35H69.0395L69.1118 104.71C69.1118 104.71 69.0395 104.71 69.0395 104.638C69.1842 104.854 69.2566 105.143 69.1118 105.287C68.8224 105.143 68.6053 105.719 68.3882 105.575C68.5329 105.575 68.5329 105.503 68.5329 105.359L68.2434 105.143C68.0987 105.287 68.5329 105.359 68.2434 105.359C67.8816 104.998 68.3882 105.143 68.4605 104.998C68.3158 104.926 68.2434 104.926 68.0987 104.998C68.2434 104.782 68.2434 104.494 68.75 104.71C68.6776 104.566 68.5329 104.494 68.4605 104.494C68.8224 104.566 68.3158 104.206 68.6053 104.278C68.1711 104.062 68.1711 104.422 67.8816 104.35C68.0263 104.782 67.5921 104.782 67.375 104.926C67.6645 105.143 67.9539 105.215 68.0987 105.431C68.0987 105.791 67.8092 105.503 67.5197 105.503C67.5197 105.719 67.9539 105.935 67.8092 106.151H68.0987C68.3882 106.656 67.8092 106.151 67.8092 106.296C67.7368 106.151 67.6645 106.079 67.7368 106.007C67.5921 105.863 67.4474 105.935 67.4474 105.935V105.863C67.2303 105.719 67.0132 105.575 67.0132 105.791C67.3026 105.935 67.0855 106.079 67.1579 106.151H67.2303C67.0855 106.151 67.0132 106.296 66.8684 106.296L66.9408 106.368C66.7961 106.368 66.5066 106.079 66.4342 106.296C66.5789 106.368 66.9408 106.584 66.7961 106.656C66.9408 106.8 67.0855 106.728 67.1579 106.512C67.0855 106.656 67.3026 107.016 67.4474 106.872C67.5921 107.088 67.2303 106.872 67.2303 107.088C67.1579 107.016 67.0855 106.944 67.0132 106.872C67.3026 107.16 66.7961 107.16 66.5789 106.944H66.8684C66.6513 106.728 66.3618 106.728 66.2895 106.512C66.5789 106.944 65.7829 106.656 66 107.016L65.8553 106.8C65.7105 107.16 65.1316 106.872 64.7697 107.016C64.9868 107.088 65.2763 107.449 65.3487 107.232C65.1316 107.521 65.5658 107.737 65.6382 107.953C65.5658 108.241 65.2039 107.665 65.0592 107.593H65.2763C64.6974 107.232 64.7697 108.097 64.2632 108.025C64.3355 108.169 64.4079 108.025 64.4803 108.097C64.5526 108.457 64.3355 108.169 64.1908 108.097C64.1184 108.241 63.9737 108.457 64.2632 108.746C64.1908 108.962 64.1184 108.53 63.9737 108.457V108.53C63.8289 108.457 63.6842 108.385 63.6118 108.241C63.5395 108.457 63.4671 108.674 63.6118 109.034C63.25 109.178 63.0329 108.313 62.7434 108.313C62.7434 108.53 62.8882 108.53 63.0329 108.674L62.8158 108.746C63.1053 109.106 63.1776 108.818 63.3947 109.25C62.9605 108.89 63.1053 109.25 62.6711 109.106V109.034C62.3816 108.818 62.2368 109.106 62.0921 109.178C62.2368 109.322 62.3816 109.25 62.5263 109.25C62.4539 109.466 61.9474 109.538 61.6579 109.25C61.5855 109.394 61.4408 109.611 61.6579 109.683C61.3684 109.899 61.2237 109.178 61.0066 109.394L61.1513 109.683C61.0066 110.259 60.3553 109.538 60.2105 110.043L60.0658 109.683C60.0658 109.899 59.9934 109.971 59.9934 110.187L60.2105 110.259C60.2105 110.619 59.921 109.971 59.8487 110.331C59.7763 110.187 59.8487 109.899 59.7763 109.755C60.5 109.755 60.9342 108.962 61.6579 109.034C61.6579 109.106 61.6579 109.178 61.7303 109.25C61.7303 109.106 61.9474 109.178 61.8026 108.962C62.0197 108.962 61.9474 108.457 62.0197 108.385C62.2368 108.602 62.3092 108.097 62.4539 108.602L62.3816 108.313C62.5263 108.457 62.5987 108.674 62.6711 108.746C62.7434 108.674 62.6711 108.457 62.5263 108.457C62.8158 108.097 63.3224 107.881 63.8289 107.737L63.6118 107.593C63.6118 107.449 64.1908 107.665 63.7566 107.232C64.0461 107.304 64.1908 106.728 64.5526 107.232C64.3355 106.656 64.8421 106.728 65.1316 106.584C65.4211 107.016 65.421 106.512 65.6382 106.656C65.421 106.296 65.2039 106.512 64.9868 106.296C65.6382 106.512 65.3487 105.359 66.1447 106.007C66.1447 105.935 66.1447 105.935 66.0724 105.935C66.1447 105.863 66.0724 105.719 66.0724 105.647C66.2171 105.719 66.2171 105.935 66.3618 105.863C66.4342 105.719 66.1447 105.575 66.1447 105.503C66.5066 105.503 66.7961 105.287 67.1579 105.575C67.0855 105.431 67.0132 105.215 66.8684 105.215C67.375 105.143 67.0132 104.926 67.4474 104.782C67.375 104.854 67.0855 104.566 67.0855 104.782C66.7237 104.278 67.5197 104.422 67.4474 103.989L67.8092 104.134C67.9539 104.062 67.6645 103.773 67.5197 103.845C67.5197 103.485 67.7368 103.485 67.8816 103.269C67.8816 103.197 67.8092 103.197 67.8092 103.269L67.9539 102.981C68.0263 102.981 68.2434 102.981 68.4605 103.125C68.3158 102.836 68.171 102.836 68.171 103.053Z" fill="#443730"/>
<path d="M67.8092 106.44C67.7368 106.368 67.7368 106.296 67.7368 106.296C67.8092 106.296 67.8092 106.368 67.8092 106.44Z" fill="#443730"/>
<path d="M70.5592 100.314C71.0658 100.602 70.4145 100.458 70.4868 100.674C70.6316 100.602 70.9211 100.747 71.0658 100.819C70.3421 100.674 71.1382 101.107 70.8487 101.323C71.0658 101.395 71.1382 101.323 71.4276 101.395C71.2105 101.467 70.9934 101.755 70.5592 101.611C70.4145 101.9 70.4145 102.188 70.2697 102.332C70.5592 102.188 70.6316 102.476 71.0658 102.476C70.5592 102.476 69.7632 102.692 69.1118 102.692C69.4737 102.981 69.4737 102.981 69.9079 103.197C69.9803 103.701 69.4737 103.053 69.4013 103.413V103.197C69.1842 103.269 68.8224 103.053 68.5329 102.909L68.8224 102.62C68.5329 102.476 68.4605 102.692 68.3158 102.692C67.9539 102.62 68.2434 102.404 67.9539 102.26C68.1711 102.332 68.2434 102.188 68.3882 102.116L68.2434 102.044C68.1711 101.828 68.6053 101.9 68.6776 101.755L68.6053 101.683C68.8224 101.755 69.0395 101.755 69.1118 101.755L69.0395 101.828C69.4737 101.9 69.8355 101.683 70.125 102.116L70.1974 101.683C69.7632 101.539 69.1842 101.323 68.9671 101.467L68.8224 101.395C68.6776 101.107 69.3289 101.107 69.6184 101.395C70.6316 101.683 69.9079 100.819 70.4145 100.747C70.1974 100.602 69.9803 100.747 69.7632 100.747C69.6908 100.819 69.6908 100.891 69.9079 100.963C69.6184 101.251 69.1118 100.53 69.0395 100.963C69.0395 101.179 69.5461 100.963 69.4737 101.251L68.6776 101.107C68.75 100.963 68.9671 100.891 69.1118 100.747C69.5461 100.458 69.6908 100.098 69.7632 99.8818C69.8355 99.6656 69.7632 99.4494 69.7632 99.4494C70.2697 98.2964 70.6316 97.0713 70.9211 95.8462C71.0658 95.4858 71.0658 95.3417 71.8618 95.2696C72.0066 95.3417 71.9342 95.63 72.2237 95.5579C71.9342 95.5579 71.7895 95.702 71.7895 95.9182C72.0789 95.9903 71.9342 95.7741 72.0066 95.7741V95.8462C72.1513 95.8462 72.2237 95.8461 72.2961 95.7741C72.6579 96.0623 72.5132 96.5668 71.9342 96.6389C72.1513 96.8551 72.3684 96.5668 72.6579 96.4947C72.7303 97.2154 72.5855 97.7198 72.4408 98.4405C71.9342 98.2964 72.0789 98.4405 71.7895 98.4405L71.9342 98.5846C71.8618 98.5125 71.5 98.5125 71.4276 98.3684C71.7171 98.8729 70.6316 98.6567 70.3421 98.8008L70.6316 98.8729C70.4868 99.0891 70.4868 99.1611 70.2697 99.2332C70.6316 99.7376 70.4145 98.9449 70.9934 99.2332L70.8487 99.3053C71.0658 99.3053 71.5 99.3773 71.7171 99.3053C71.2105 99.5215 71.7171 99.8818 71.2829 100.098C71.5724 100.17 71.8618 99.8818 71.9342 99.8097C71.9342 99.9538 71.6447 100.098 71.8618 100.242L71.5 100.17C71.3553 100.386 71.8618 100.242 72.0066 100.386C71.8618 100.819 70.9934 100.026 70.5592 100.314Z" fill="#443730"/>
<path d="M67.9539 105.143C67.9539 105.07 68.0263 105.07 68.0987 104.998C68.0263 105.07 68.0263 105.07 67.9539 105.143Z" fill="#443730"/>
<path d="M69.1842 104.71C69.2566 104.71 69.2566 104.782 69.329 104.782C69.2566 104.71 69.2566 104.71 69.1842 104.71Z" fill="#443730"/>
<path d="M69.6908 104.854C69.5461 104.71 69.5461 104.782 69.3289 104.71C69.4737 104.782 69.5461 104.566 69.6908 104.854Z" fill="#443730"/>
<path d="M53.5526 112.853C53.4803 112.781 53.3355 112.637 53.4079 112.565L53.625 112.637L53.5526 112.853Z" fill="#443730"/>
<path d="M53.9868 112.421L54.2039 112.277L54.421 112.781C54.1316 112.709 54.2039 112.349 53.9868 112.421Z" fill="#443730"/>
<path d="M54.5658 112.061L54.4934 111.917C54.4934 111.989 54.5658 111.989 54.5658 112.061Z" fill="#443730"/>
<path d="M54.5658 112.277L54.7105 112.637L54.4211 112.421L54.4934 112.349C54.4934 112.205 54.5658 112.133 54.5658 112.133L54.7105 112.349C54.6382 112.277 54.5658 112.205 54.5658 112.277Z" fill="#443730"/>
<path d="M55.2171 111.484C55.2171 111.628 55.2895 111.772 55.3618 111.917C55.1447 112.061 55.0724 111.556 54.9276 111.772C55.2171 111.989 54.8553 111.989 54.7829 112.205C54.7829 111.845 54.8553 111.628 55.0724 111.484L55.1447 111.7C55.2171 111.772 55.1447 111.628 55.2171 111.484Z" fill="#443730"/>
<path d="M56.375 111.917L56.1579 111.628C56.1579 111.772 55.8684 111.845 55.9408 112.133C55.8684 112.133 55.7961 111.917 55.7237 111.845C55.6513 112.061 55.6513 112.133 55.5066 111.917C55.8684 111.628 55.7237 111.556 56.0855 111.412C56.0855 111.34 56.0132 111.34 56.0132 111.412L56.2303 111.196C56.3026 111.628 56.5921 111.628 56.375 111.917Z" fill="#443730"/>
<path d="M56.6645 111.628C56.5197 111.628 56.3026 111.34 56.375 111.124C56.5197 111.196 56.6645 111.268 56.8092 111.34C56.7368 111.34 56.5921 111.34 56.6645 111.628Z" fill="#443730"/>
<path d="M56.9539 111.556C56.9539 111.34 57.0263 110.98 57.2434 111.268C57.0263 111.268 57.1711 111.772 56.9539 111.556Z" fill="#443730"/>
<path d="M58.1118 110.908L57.8224 111.196C57.8947 111.628 58.0395 111.268 58.1842 111.484C57.8947 111.628 57.9671 111.484 57.6776 111.268C57.6053 111.34 57.3882 111.124 57.3158 111.052C57.8224 111.268 57.6053 110.259 58.1118 110.908Z" fill="#443730"/>
<path d="M57.5329 111.556L57.4605 111.34L57.6776 111.484L57.5329 111.556Z" fill="#443730"/>
<path d="M58.8355 110.259C58.9079 109.683 59.3421 110.475 59.4868 110.187C59.4868 110.187 59.4868 110.115 59.4145 110.043H59.6316V109.899C59.7039 110.187 59.9211 110.259 60.1382 110.403C60.0658 110.764 59.921 110.043 59.8487 110.475C59.921 110.619 60.0658 110.764 60.1382 110.908C59.9934 110.836 59.8487 110.619 59.7763 110.475C59.6316 110.475 59.7039 110.619 59.7763 110.764C59.5592 110.619 59.4145 110.187 59.2697 110.331C59.1974 110.619 59.4868 110.692 59.1974 110.692C59.1974 110.187 58.9803 110.836 58.7632 110.547C58.6184 110.691 58.5461 110.98 58.6184 111.196C58.5461 110.836 58.2566 110.547 58.1118 110.475L58.4737 110.692V110.259C58.5461 110.475 58.6908 110.403 58.8355 110.259Z" fill="#443730"/>
<path d="M59.9934 110.98L60.0658 111.052L59.9934 110.98Z" fill="#443730"/>
<path d="M58.4737 111.412L58.5461 111.484V111.556L58.4737 111.412Z" fill="#443730"/>
<path d="M60.2105 111.196C60.1382 111.196 60.1382 111.124 60.1382 111.052L60.2105 111.196Z" fill="#443730"/>
<path d="M60.2829 110.836L60.3553 110.547L60.4276 110.764L60.2829 110.836Z" fill="#443730"/>
<path d="M64.1908 108.746C64.1908 108.962 63.9737 108.674 63.8289 108.53C63.9737 108.313 63.9737 108.746 64.1908 108.746Z" fill="#443730"/>
<path d="M66.6513 107.377C66.6513 107.665 66.3618 107.521 66.2171 107.593C66.2171 107.377 66.4342 107.377 66.6513 107.377Z" fill="#443730"/>
<path d="M68.2434 107.304C68.1711 107.232 68.0987 107.232 68.0987 107.16L67.5921 106.872C67.6645 106.584 68.0987 107.088 68.2434 107.304Z" fill="#443730"/>
<path d="M69.2566 106.296L68.9671 106.368L69.0395 106.296C68.8224 106.223 68.75 106.151 68.5329 106.079C68.75 106.007 68.9671 106.007 69.2566 106.296Z" fill="#443730"/>
<path d="M68.3158 106.079C68.3158 106.079 68.3882 106.079 68.3882 106.007C68.4605 106.151 68.4605 106.223 68.3158 106.079Z" fill="#443730"/>
<path d="M68.4605 106.007C68.4605 106.007 68.5329 106.007 68.4605 106.007C68.4605 106.007 68.4605 106.079 68.4605 106.007C68.3882 106.007 68.3882 106.007 68.4605 106.007Z" fill="#443730"/>
<path d="M69.1842 105.935L69.4737 105.647V105.863C69.1842 105.719 69.4737 106.151 69.1842 105.935Z" fill="#443730"/>
<path d="M70.1974 104.134L69.9079 103.917C69.9803 103.701 70.7763 103.773 70.4145 103.413C70.5592 103.629 70.8487 103.413 70.7763 103.701C70.4145 103.629 70.1974 103.917 70.1974 104.134Z" fill="#443730"/>
<path d="M70.2697 103.125C70.1974 103.125 70.125 103.053 70.0526 102.981C70.0526 102.908 70.2697 102.908 70.3421 102.981C69.9079 102.764 70.4868 103.197 70.2697 103.125Z" fill="#443730"/>
<path d="M70.7763 102.116C70.704 102.188 70.6316 102.26 70.6316 102.116C70.7763 101.972 71.0658 102.188 71.2829 102.188C71.4276 102.404 70.9211 102.332 70.7763 102.116Z" fill="#443730"/>
<path d="M69.1842 99.7376C69.4737 99.8818 69.3289 99.9538 69.2566 99.9538C69.3289 99.9538 69.2566 99.8097 69.1842 99.7376Z" fill="#443730"/>
<path d="M71.4276 100.53V100.602L71.0658 100.53H71.4276Z" fill="#443730"/>
<path d="M72.0789 99.4494L72.3684 99.3773L72.2961 99.5935L72.0789 99.4494Z" fill="#443730"/>
<path d="M72.0789 99.1611L72.1513 98.9449L72.2237 99.017C72.2961 99.2332 72.0789 99.0891 72.0789 99.1611Z" fill="#443730"/>
<path d="M72.2961 98.5846C72.2961 98.5846 72.2961 98.6567 72.3684 98.6567L72.1513 98.8008L72.2961 98.5846Z" fill="#443730"/>
<path d="M71.1382 95.1255C70.8487 95.1255 71.0658 94.9814 70.9934 94.9814C71.0658 94.9093 71.4276 95.0534 71.1382 95.1255Z" fill="#443730"/>
</g>
<path d="M45.2303 30.6275C45.0855 30.2672 45.0855 29.8348 45.375 29.5466C46.1711 28.5377 48.1974 26.2316 50.5132 26.5919C53.1908 27.0243 54.9276 30.1951 54.8553 31.0599C54.7105 32.285 52.6118 34.8073 49.7171 34.7352C47.4013 34.8073 45.8092 31.8526 45.2303 30.6275Z" fill="#9BBEDC"/>
<path d="M52.3434 30.8149C52.5272 29.1127 51.645 27.6231 50.3735 27.4869C49.102 27.3507 47.9216 28.6198 47.7378 30.3213C47.554 32.0227 48.4362 33.513 49.7077 33.6492C50.9792 33.7854 52.1595 32.5163 52.3434 30.8149Z" fill="#1B1C1E"/>
</svg>
