<svg width="35" height="35" viewBox="0 0 35 35" fill="none" xmlns="http://www.w3.org/2000/svg">
<g clip-path="url(#clip0_0_3)">
<path d="M17.4514 8.92544C12.4854 8.92544 8.47987 12.8534 8.47987 17.723C8.47987 22.5928 12.4854 26.5206 17.4514 26.5206C22.4173 26.5206 26.423 22.5928 26.423 17.723C26.423 12.8534 22.4173 8.92544 17.4514 8.92544ZM17.4514 23.4426C14.2423 23.4426 11.6188 20.8777 11.6188 17.723C11.6188 14.5684 14.2344 12.0034 17.4514 12.0034C20.6684 12.0034 23.2841 14.5684 23.2841 17.723C23.2841 20.8777 20.6606 23.4426 17.4514 23.4426ZM28.8825 8.56559C28.8825 9.70646 27.9456 10.6175 26.7899 10.6175C25.6265 10.6175 24.6973 9.69876 24.6973 8.56559C24.6973 7.43235 25.6344 6.51357 26.7899 6.51357C27.9456 6.51357 28.8825 7.43235 28.8825 8.56559ZM34.8245 10.6482C34.6918 7.89943 34.0515 5.46458 31.998 3.45852C29.9522 1.45245 27.4692 0.824597 24.6661 0.686772C21.7772 0.525984 13.1178 0.525984 10.2289 0.686772C7.43358 0.816938 4.95056 1.4448 2.89702 3.45086C0.843479 5.45693 0.211017 7.89181 0.0704695 10.6405C-0.093501 13.4735 -0.093501 21.9649 0.0704695 24.7979C0.203208 27.5467 0.843479 29.9814 2.89702 31.9876C4.95056 33.9937 7.42574 34.6215 10.2289 34.7593C13.1178 34.9201 21.7772 34.9201 24.6661 34.7593C27.4692 34.6292 29.9522 34.0014 31.998 31.9876C34.0437 29.9814 34.6839 27.5467 34.8245 24.7979C34.9885 21.9649 34.9885 13.4812 34.8245 10.6482ZM31.0922 27.8376C30.4832 29.3383 29.3042 30.4945 27.7659 31.0994C25.4626 31.9952 19.9968 31.7885 17.4514 31.7885C14.906 31.7885 9.43241 31.9876 7.13685 31.0994C5.60644 30.5021 4.42741 29.346 3.81057 27.8376C2.89702 25.5789 3.10784 20.2191 3.10784 17.723C3.10784 15.2269 2.90482 9.85959 3.81057 7.60845C4.41961 6.10776 5.59863 4.95158 7.13685 4.3467C9.44029 3.45086 14.906 3.6576 17.4514 3.6576C19.9968 3.6576 25.4704 3.45852 27.7659 4.3467C29.2963 4.94392 30.4754 6.1001 31.0922 7.60845C32.0057 9.86729 31.795 15.2269 31.795 17.723C31.795 20.2191 32.0057 25.5865 31.0922 27.8376Z" fill="white"/>
</g>
<defs>
<clipPath id="clip0_0_3">
<rect width="35" height="35" fill="white"/>
</clipPath>
</defs>
</svg>
