<svg width="40" height="35" viewBox="0 0 40 35" fill="none" xmlns="http://www.w3.org/2000/svg">
<path d="M35.8883 8.72613C35.9137 9.10875 35.9137 9.49148 35.9137 9.87411C35.9137 21.5453 27.665 34.9932 12.5888 34.9932C7.94414 34.9932 3.62946 33.5445 0 31.03C0.659922 31.1119 1.29438 31.1392 1.97969 31.1392C5.81211 31.1392 9.34008 29.7453 12.1574 27.3674C8.55328 27.2853 5.53297 24.7433 4.49234 21.2447C5 21.3266 5.50758 21.3813 6.04062 21.3813C6.77664 21.3813 7.51274 21.272 8.198 21.0807C4.44164 20.2606 1.6243 16.7074 1.6243 12.4161V12.3068C2.71562 12.9628 3.98477 13.3728 5.32984 13.4274C3.12172 11.8421 1.67508 9.13614 1.67508 6.07478C1.67508 4.43483 2.0811 2.93151 2.7918 1.61951C6.82734 6.97679 12.8934 10.4753 19.6953 10.8581C19.5684 10.2021 19.4922 9.51878 19.4922 8.83549C19.4922 3.97015 23.1471 0.0069046 27.6902 0.0069046C30.0506 0.0069046 32.1826 1.07289 33.6801 2.79487C35.5328 2.41223 37.3094 1.6742 38.8831 0.662903C38.2739 2.71292 36.9795 4.43491 35.279 5.52816C36.9288 5.33692 38.5278 4.84482 39.9998 4.16155C38.8833 5.91079 37.4873 7.46872 35.8883 8.72613Z" fill="white"/>
</svg>
