<svg width="65" height="65" viewBox="0 0 65 65" fill="none" xmlns="http://www.w3.org/2000/svg">
<path d="M32.5 65C50.4493 65 65 50.4493 65 32.5C65 14.5507 50.4493 0 32.5 0C14.5507 0 0 14.5507 0 32.5C0 50.4493 14.5507 65 32.5 65Z" fill="#606C38"/>
<path d="M64.9978 32.3293L53.9224 21.2541L16.5754 42.4656L38.5463 64.4362C53.606 61.6025 65 48.3827 65 32.5C65 32.4429 64.998 32.3864 64.9978 32.3293Z" fill="#283618"/>
<path d="M21.8367 29.1962C23.6681 27.2026 23.256 24.2115 20.916 22.5154C19.2983 21.3426 14.826 20.9753 12.2199 20.8604C11.2088 20.8157 10.4631 21.6274 10.715 22.4984C11.3643 24.7434 12.6661 32.9393 14.2839 34.1119C16.6238 35.808 20.0053 31.1897 21.8367 29.1962Z" fill="#898989"/>
<path d="M43.1633 29.1962C41.3319 27.2026 41.744 24.2115 44.084 22.5154C45.7017 21.3426 50.174 20.9753 52.7801 20.8604C53.7912 20.8157 54.5369 21.6274 54.285 22.4984C53.6357 24.7434 52.3339 32.9393 50.7161 34.1119C48.3762 35.808 44.9946 31.1897 43.1633 29.1962Z" fill="#69696B"/>
<path d="M51.3769 34.7898C51.3769 43.6721 42.9254 47.5896 32.5 47.5896C22.0746 47.5896 13.6231 43.6721 13.6231 34.7898C13.6231 25.9076 22.0746 18.6625 32.5 18.6625C42.9254 18.6625 51.3769 25.9074 51.3769 34.7898Z" fill="#DBDBDD"/>
<path d="M51.3769 34.7896C51.3769 25.9073 42.9254 18.6621 32.5003 18.6621V47.5893C42.9254 47.5894 51.3769 43.6721 51.3769 34.7896Z" fill="#C1C1C1"/>
<path d="M25.1049 36.516C25.8326 36.516 26.4224 35.9262 26.4224 35.1985C26.4224 34.4708 25.8326 33.881 25.1049 33.881C24.3772 33.881 23.7873 34.4708 23.7873 35.1985C23.7873 35.9262 24.3772 36.516 25.1049 36.516Z" fill="black"/>
<path d="M39.8951 36.516C40.6228 36.516 41.2127 35.9262 41.2127 35.1985C41.2127 34.4708 40.6228 33.881 39.8951 33.881C39.1674 33.881 38.5776 34.4708 38.5776 35.1985C38.5776 35.9262 39.1674 36.516 39.8951 36.516Z" fill="black"/>
<path d="M33.9954 43.8028H33.2342V40.3236C33.2342 39.9181 32.9052 39.5893 32.4999 39.5893C32.0945 39.5893 31.7656 39.9183 31.7656 40.3236V43.8028H31.0044C30.5989 43.8028 30.2701 44.1315 30.2701 44.5371C30.2701 44.9426 30.599 45.2714 31.0044 45.2714H33.9953C34.4007 45.2714 34.7295 44.9427 34.7295 44.5371C34.7297 44.1315 34.401 43.8028 33.9954 43.8028Z" fill="black"/>
<path d="M33.9954 43.8028H33.2342V40.3236C33.2342 39.9181 32.9052 39.5893 32.4999 39.5893V45.2717H33.9953C34.4007 45.2717 34.7296 44.9431 34.7296 44.5374C34.7297 44.132 34.401 43.8028 33.9954 43.8028Z" fill="black"/>
<path d="M37.9999 26.2764L41.7258 20.7262C40.6541 20.2111 39.5185 19.783 38.3304 19.4528L36.7788 25.6632C36.5826 26.4486 37.556 26.9375 37.9999 26.2764Z" fill="#69696B"/>
<path d="M26.8329 26.2764C27.277 26.9375 28.2502 26.4486 28.054 25.6629L26.5134 19.4978C25.3355 19.8351 24.21 20.2687 23.1483 20.7882L26.8329 26.2764Z" fill="#898989"/>
<path d="M33.3045 28.8981L35.0308 18.8113C34.2024 18.7161 33.3587 18.6622 32.5 18.6622C31.584 18.6622 30.6846 18.7213 29.8036 18.8292L31.5269 28.8981C31.7071 29.9514 33.1242 29.9514 33.3045 28.8981Z" fill="#898989"/>
<path d="M32.5 18.6622V29.6809C32.8697 29.6463 33.2207 29.3874 33.3045 28.8981L35.0308 18.8113C34.2024 18.7161 33.3588 18.6622 32.5 18.6622Z" fill="#69696B"/>
<path d="M31.1075 40.4524L29.6802 38.6164C28.9744 37.7085 29.7652 36.5162 31.0728 36.5162H33.9273C35.235 36.5162 36.0257 37.7085 35.3199 38.6164L33.8927 40.4524C33.2417 41.2897 31.7583 41.2897 31.1075 40.4524Z" fill="black"/>
<path d="M33.9272 36.5164H32.5V41.0804C33.0336 41.0804 33.5672 40.8712 33.8925 40.4525L35.3198 38.6165C36.0255 37.7085 35.2351 36.5164 33.9272 36.5164Z" fill="black"/>
</svg>
