<svg width="512" height="512" viewBox="0 0 512 512" fill="none" xmlns="http://www.w3.org/2000/svg">
<g clip-path="url(#clip0_0_3)">
<path d="M256 512C397.385 512 512 397.385 512 256C512 114.615 397.385 0 256 0C114.615 0 0 114.615 0 256C0 397.385 114.615 512 256 512Z" fill="#606C38"/>
<path d="M511.983 254.655L424.743 167.417L130.563 334.498L303.626 507.559C422.25 485.238 512 381.107 512 256C512 255.55 511.984 255.105 511.983 254.655Z" fill="#283618"/>
<path d="M172.006 229.976C186.432 214.273 183.186 190.712 164.754 177.352C152.011 168.114 116.783 165.221 96.255 164.316C88.291 163.964 82.417 170.357 84.401 177.218C89.516 194.902 99.77 259.46 112.513 268.697C130.944 282.057 157.58 245.679 172.006 229.976Z" fill="#898989"/>
<path d="M339.994 229.976C325.568 214.273 328.814 190.712 347.246 177.352C359.989 168.114 395.217 165.221 415.745 164.316C423.709 163.964 429.583 170.357 427.599 177.218C422.484 194.902 412.23 259.46 399.487 268.697C381.056 282.057 354.419 245.679 339.994 229.976Z" fill="#69696B"/>
<path d="M404.692 274.037C404.692 344.002 338.12 374.86 256 374.86C173.88 374.86 107.308 344.002 107.308 274.037C107.308 204.072 173.88 147.003 256 147.003C338.12 147.003 404.692 204.071 404.692 274.037Z" fill="#DBDBDD"/>
<path d="M404.692 274.035C404.692 204.07 338.12 147 256.002 147V374.857C338.12 374.858 404.692 344.002 404.692 274.035Z" fill="#C1C1C1"/>
<path d="M197.749 287.634C203.481 287.634 208.127 282.988 208.127 277.256C208.127 271.524 203.481 266.878 197.749 266.878C192.017 266.878 187.371 271.524 187.371 277.256C187.371 282.988 192.017 287.634 197.749 287.634Z" fill="black"/>
<path d="M314.251 287.634C319.983 287.634 324.629 282.988 324.629 277.256C324.629 271.524 319.983 266.878 314.251 266.878C308.519 266.878 303.873 271.524 303.873 277.256C303.873 282.988 308.519 287.634 314.251 287.634Z" fill="black"/>
<path d="M267.779 345.031H261.783V317.626C261.783 314.432 259.192 311.842 255.999 311.842C252.806 311.842 250.215 314.433 250.215 317.626V345.031H244.219C241.025 345.031 238.435 347.62 238.435 350.815C238.435 354.009 241.026 356.599 244.219 356.599H267.778C270.972 356.599 273.562 354.01 273.562 350.815C273.563 347.62 270.974 345.031 267.779 345.031Z" fill="black"/>
<path d="M267.779 345.031H261.783V317.626C261.783 314.432 259.192 311.842 255.999 311.842V356.602H267.778C270.972 356.602 273.562 354.013 273.562 350.818C273.563 347.624 270.974 345.031 267.779 345.031Z" fill="black"/>
<path d="M299.322 206.977L328.671 163.259C320.229 159.201 311.284 155.829 301.926 153.228L289.704 202.147C288.158 208.334 295.826 212.185 299.322 206.977Z" fill="#69696B"/>
<path d="M211.361 206.977C214.859 212.185 222.525 208.334 220.979 202.145L208.844 153.583C199.566 156.24 190.7 159.655 182.337 163.747L211.361 206.977Z" fill="#898989"/>
<path d="M262.337 227.628L275.935 148.175C269.41 147.425 262.764 147.001 256 147.001C248.785 147.001 241.7 147.466 234.761 148.316L248.335 227.628C249.754 235.925 260.917 235.925 262.337 227.628Z" fill="#898989"/>
<path d="M256 147.001V233.794C258.912 233.522 261.677 231.482 262.337 227.628L275.935 148.175C269.41 147.425 262.765 147.001 256 147.001Z" fill="#69696B"/>
<path d="M245.031 318.64L233.789 304.178C228.229 297.027 234.458 287.635 244.758 287.635H267.243C277.543 287.635 283.772 297.027 278.212 304.178L266.97 318.64C261.842 325.236 250.158 325.236 245.031 318.64Z" fill="black"/>
<path d="M267.242 287.637H256V323.587C260.203 323.587 264.406 321.939 266.969 318.641L278.211 304.179C283.77 297.027 277.544 287.637 267.242 287.637Z" fill="black"/>
</g>
<defs>
<clipPath id="clip0_0_3">
<rect width="512" height="512" fill="white"/>
</clipPath>
</defs>
</svg>
