<svg width="60" height="60" viewBox="0 0 60 60" fill="none" xmlns="http://www.w3.org/2000/svg">
<path d="M30 60C46.5686 60 60 46.5686 60 30C60 13.4314 46.5686 0 30 0C13.4314 0 0 13.4314 0 30C0 46.5686 13.4314 60 30 60Z" fill="#606C38"/>
<path d="M59.9979 29.8425L49.7746 19.6191L15.3004 39.199L35.5812 59.4795C49.4824 56.8639 60 44.6609 60 30C60 29.9473 59.9981 29.8952 59.9979 29.8425Z" fill="#283618"/>
<path d="M20.1569 26.9504C21.8475 25.1101 21.4671 22.3491 19.3071 20.7835C17.8138 19.7008 13.6856 19.3618 11.2799 19.2558C10.3466 19.2145 9.6583 19.9638 9.89076 20.7678C10.4902 22.84 11.6918 30.4055 13.1852 31.4879C15.3451 33.0536 18.4665 28.7905 20.1569 26.9504Z" fill="#898989"/>
<path d="M39.8431 26.9504C38.1525 25.1101 38.5329 22.3491 40.6929 20.7835C42.1862 19.7008 46.3144 19.3618 48.7201 19.2558C49.6534 19.2145 50.3417 19.9638 50.1093 20.7678C49.5099 22.84 48.3082 30.4055 46.8148 31.4879C44.6549 33.0536 41.5335 28.7905 39.8431 26.9504Z" fill="#69696B"/>
<path d="M47.4248 32.1136C47.4248 40.3127 39.6235 43.9288 30 43.9288C20.3765 43.9288 12.5751 40.3127 12.5751 32.1136C12.5751 23.9147 20.3765 17.2269 30 17.2269C39.6235 17.2269 47.4248 23.9145 47.4248 32.1136Z" fill="#DBDBDD"/>
<path d="M47.4248 32.1135C47.4248 23.9145 39.6235 17.2265 30.0002 17.2265V43.9286C39.6235 43.9287 47.4248 40.3127 47.4248 32.1135Z" fill="#C1C1C1"/>
<path d="M23.1737 33.7071C23.8455 33.7071 24.3899 33.1627 24.3899 32.4909C24.3899 31.8192 23.8455 31.2747 23.1737 31.2747C22.5021 31.2747 21.9575 31.8192 21.9575 32.4909C21.9575 33.1627 22.5021 33.7071 23.1737 33.7071Z" fill="black"/>
<path d="M36.8263 33.7071C37.4979 33.7071 38.0425 33.1627 38.0425 32.4909C38.0425 31.8192 37.4979 31.2747 36.8263 31.2747C36.1545 31.2747 35.6101 31.8192 35.6101 32.4909C35.6101 33.1627 36.1545 33.7071 36.8263 33.7071Z" fill="black"/>
<path d="M31.3803 40.4333H30.6777V37.2218C30.6777 36.8475 30.3741 36.5439 29.9999 36.5439C29.6257 36.5439 29.3221 36.8476 29.3221 37.2218V40.4333H28.6195C28.2452 40.4333 27.9417 40.7367 27.9417 41.1111C27.9417 41.4855 28.2453 41.789 28.6195 41.789H31.3803C31.7545 41.789 32.058 41.4855 32.058 41.1111C32.0582 40.7367 31.7547 40.4333 31.3803 40.4333Z" fill="black"/>
<path d="M31.3803 40.4333H30.6777V37.2218C30.6777 36.8475 30.3741 36.5439 29.9999 36.5439V41.7892H31.3802C31.7545 41.7892 32.0581 41.486 32.0581 41.1115C32.0582 40.7373 31.7547 40.4333 31.3803 40.4333Z" fill="black"/>
<path d="M35.0769 24.2552L38.5161 19.1319C37.5268 18.6564 36.4786 18.2613 35.3819 17.9565L33.9496 23.6891C33.7685 24.4141 34.6671 24.8654 35.0769 24.2552Z" fill="#69696B"/>
<path d="M24.7688 24.2552C25.1787 24.8654 26.0771 24.4141 25.896 23.6889L24.4739 17.9979C23.3866 18.3093 22.3477 18.7095 21.3676 19.1891L24.7688 24.2552Z" fill="#898989"/>
<path d="M30.7426 26.6751L32.3361 17.3643C31.5715 17.2764 30.7927 17.2267 30 17.2267C29.1544 17.2267 28.3243 17.2812 27.511 17.3808L29.1017 26.6751C29.2681 27.6475 30.5762 27.6475 30.7426 26.6751Z" fill="#898989"/>
<path d="M30 17.2267V27.3977C30.3412 27.3658 30.6652 27.1269 30.7426 26.6751L32.3361 17.3643C31.5715 17.2764 30.7928 17.2267 30 17.2267Z" fill="#69696B"/>
<path d="M28.7146 37.3407L27.3971 35.6459C26.7456 34.8079 27.4755 33.7072 28.6826 33.7072H31.3175C32.5246 33.7072 33.2545 34.8079 32.603 35.6459L31.2855 37.3407C30.6847 38.1135 29.3153 38.1135 28.7146 37.3407Z" fill="black"/>
<path d="M31.3174 33.7075H30V37.9203C30.4925 37.9203 30.9851 37.7272 31.2854 37.3407L32.6029 35.646C33.2543 34.8079 32.5247 33.7075 31.3174 33.7075Z" fill="black"/>
</svg>
