<svg width="70" height="70" viewBox="0 0 70 70" fill="none" xmlns="http://www.w3.org/2000/svg">
<path d="M35 70C54.33 70 70 54.33 70 35C70 15.67 54.33 0 35 0C15.67 0 0 15.67 0 35C0 54.33 15.67 70 35 70Z" fill="#606C38"/>
<path d="M69.9976 34.8162L58.0703 22.889L17.8504 45.7322L41.5114 69.3928C57.7295 66.3412 70 52.1044 70 35C70 34.9385 69.9978 34.8777 69.9976 34.8162Z" fill="#283618"/>
<path d="M23.5164 31.4421C25.4887 29.2951 25.0449 26.0739 22.5249 24.2474C20.7828 22.9843 15.9665 22.5888 13.1599 22.4651C12.071 22.4169 11.268 23.2911 11.5392 24.2291C12.2385 26.6467 13.6404 35.4731 15.3827 36.7359C17.9026 38.5625 21.5442 33.5889 23.5164 31.4421Z" fill="#898989"/>
<path d="M46.4836 31.4421C44.5113 29.2951 44.9551 26.0739 47.4751 24.2474C49.2172 22.9843 54.0335 22.5888 56.8401 22.4651C57.929 22.4169 58.732 23.2911 58.4608 24.2291C57.7615 26.6467 56.3596 35.4731 54.6173 36.7359C52.0974 38.5625 48.4557 33.5889 46.4836 31.4421Z" fill="#69696B"/>
<path d="M55.329 37.4659C55.329 47.0315 46.2274 51.2503 35 51.2503C23.7726 51.2503 14.671 47.0315 14.671 37.4659C14.671 27.9005 23.7726 20.0981 35 20.0981C46.2274 20.0981 55.329 27.9003 55.329 37.4659Z" fill="#DBDBDD"/>
<path d="M55.329 37.4657C55.329 27.9002 46.2274 20.0976 35.0003 20.0976V51.25C46.2274 51.2501 55.329 47.0315 55.329 37.4657Z" fill="#C1C1C1"/>
<path d="M27.036 39.3249C27.8197 39.3249 28.4549 38.6898 28.4549 37.9061C28.4549 37.1224 27.8197 36.4872 27.036 36.4872C26.2524 36.4872 25.6171 37.1224 25.6171 37.9061C25.6171 38.6898 26.2524 39.3249 27.036 39.3249Z" fill="black"/>
<path d="M42.964 39.3249C43.7476 39.3249 44.3829 38.6898 44.3829 37.9061C44.3829 37.1224 43.7476 36.4872 42.964 36.4872C42.1803 36.4872 41.5451 37.1224 41.5451 37.9061C41.5451 38.6898 42.1803 39.3249 42.964 39.3249Z" fill="black"/>
<path d="M36.6104 47.1722H35.7907V43.4254C35.7907 42.9887 35.4364 42.6346 34.9999 42.6346C34.5633 42.6346 34.2091 42.9889 34.2091 43.4254V47.1722H33.3894C32.9527 47.1722 32.5986 47.5262 32.5986 47.963C32.5986 48.3997 32.9528 48.7538 33.3894 48.7538H36.6103C37.0469 48.7538 37.401 48.3998 37.401 47.963C37.4012 47.5262 37.0472 47.1722 36.6104 47.1722Z" fill="black"/>
<path d="M36.6104 47.1722H35.7907V43.4254C35.7907 42.9887 35.4364 42.6346 34.9999 42.6346V48.7541H36.6103C37.0469 48.7541 37.4011 48.4003 37.4011 47.9634C37.4012 47.5268 37.0472 47.1722 36.6104 47.1722Z" fill="black"/>
<path d="M40.923 28.2977L44.9355 22.3205C43.7813 21.7658 42.5584 21.3048 41.2789 20.9492L39.6079 27.6373C39.3966 28.4831 40.4449 29.0096 40.923 28.2977Z" fill="#69696B"/>
<path d="M28.897 28.2977C29.3752 29.0096 30.4233 28.4831 30.212 27.637L28.5529 20.9976C27.2844 21.3609 26.0723 21.8278 24.9289 22.3873L28.897 28.2977Z" fill="#898989"/>
<path d="M35.8664 31.121L37.7255 20.2583C36.8334 20.1558 35.9248 20.0978 35 20.0978C34.0135 20.0978 33.045 20.1614 32.0962 20.2776L33.952 31.121C34.1461 32.2554 35.6722 32.2554 35.8664 31.121Z" fill="#898989"/>
<path d="M35 20.0978V31.964C35.3981 31.9268 35.7761 31.648 35.8664 31.121L37.7255 20.2583C36.8334 20.1558 35.9249 20.0978 35 20.0978Z" fill="#69696B"/>
<path d="M33.5004 43.5641L31.9633 41.5869C31.2032 40.6092 32.0548 39.3251 33.463 39.3251H36.5371C37.9454 39.3251 38.7969 40.6092 38.0368 41.5869L36.4998 43.5641C35.7988 44.4658 34.2012 44.4658 33.5004 43.5641Z" fill="black"/>
<path d="M36.537 39.3254H35V44.2404C35.5746 44.2404 36.1493 44.0151 36.4996 43.5642L38.0367 41.587C38.7967 40.6092 37.9455 39.3254 36.537 39.3254Z" fill="black"/>
</svg>
