<svg width="40" height="41" viewBox="0 0 40 41" fill="none" xmlns="http://www.w3.org/2000/svg">
<path d="M38.822 34.1505C40.3843 35.7129 40.3843 38.244 38.822 39.8063C38.047 40.5875 37.0221 40.975 35.9972 40.975C34.9723 40.975 33.9498 40.5844 33.1699 39.8032L19.9984 26.6386L6.82822 39.8001C6.04703 40.5875 5.02336 40.975 3.99969 40.975C2.97602 40.975 1.9536 40.5875 1.17178 39.8001C-0.390594 38.2377 -0.390594 35.7067 1.17178 34.1443L14.3458 20.9703L1.17178 7.8026C-0.390594 6.24022 -0.390594 3.70917 1.17178 2.14679C2.73416 0.584412 5.26521 0.584412 6.82759 2.14679L19.9984 15.327L33.1724 2.15304C34.7348 0.590661 37.2658 0.590661 38.8282 2.15304C40.3906 3.71542 40.3906 6.24647 38.8282 7.80885L25.6542 20.9828L38.822 34.1505Z" fill="black"/>
</svg>
