<svg width="50" height="51" viewBox="0 0 50 51" fill="none" xmlns="http://www.w3.org/2000/svg">
<path d="M48.5275 42.4444C50.4804 44.3974 50.4804 47.5612 48.5275 49.5142C47.5588 50.4907 46.2776 50.975 44.9965 50.975C43.7153 50.975 42.4373 50.4868 41.4624 49.5103L24.998 33.0545L8.53527 49.5064C7.55878 50.4907 6.2792 50.975 4.99961 50.975C3.72002 50.975 2.442 50.4907 1.46473 49.5064C-0.488243 47.5534 -0.488243 44.3896 1.46473 42.4366L17.9322 25.9691L1.46473 9.5095C-0.488243 7.55652 -0.488243 4.39271 1.46473 2.43974C3.4177 0.486763 6.58152 0.486763 8.53449 2.43974L24.998 18.915L41.4655 2.44755C43.4185 0.494575 46.5823 0.494575 48.5353 2.44755C50.4882 4.40052 50.4882 7.56433 48.5353 9.51731L32.0678 25.9848L48.5275 42.4444Z" fill="black"/>
</svg>
