<svg width="60" height="50" viewBox="0 0 60 50" fill="none" xmlns="http://www.w3.org/2000/svg">
<path d="M0 4.16667C0 1.86589 1.9192 0 4.28571 0H55.7143C58.0848 0 60 1.86589 60 4.16667C60 6.47135 58.0848 8.33333 55.7143 8.33333H4.28571C1.9192 8.33333 0 6.47135 0 4.16667ZM0 25C0 22.6953 1.9192 20.8333 4.28571 20.8333H55.7143C58.0848 20.8333 60 22.6953 60 25C60 27.3047 58.0848 29.1667 55.7143 29.1667H4.28571C1.9192 29.1667 0 27.3047 0 25ZM55.7143 50H4.28571C1.9192 50 0 48.138 0 45.8333C0 43.5286 1.9192 41.6667 4.28571 41.6667H55.7143C58.0848 41.6667 60 43.5286 60 45.8333C60 48.138 58.0848 50 55.7143 50Z" fill="black"/>
</svg>
