<svg width="50" height="40" viewBox="0 0 50 40" fill="none" xmlns="http://www.w3.org/2000/svg">
<path d="M0 3.33334C0 1.49271 1.59933 0 3.57142 0H46.4286C48.404 0 50 1.49271 50 3.33334C50 5.17708 48.404 6.66666 46.4286 6.66666H3.57142C1.59933 6.66666 0 5.17708 0 3.33334ZM0 20C0 18.1562 1.59933 16.6666 3.57142 16.6666H46.4286C48.404 16.6666 50 18.1562 50 20C50 21.8438 48.404 23.3334 46.4286 23.3334H3.57142C1.59933 23.3334 0 21.8438 0 20ZM46.4286 40H3.57142C1.59933 40 0 38.5104 0 36.6666C0 34.8229 1.59933 33.3334 3.57142 33.3334H46.4286C48.404 33.3334 50 34.8229 50 36.6666C50 38.5104 48.404 40 46.4286 40Z" fill="black"/>
</svg>
