<svg width="152" height="247" viewBox="0 0 152 247" fill="none" xmlns="http://www.w3.org/2000/svg">
<path d="M1.30001 241.9C1.30001 241.9 -4.6 244.5 11.5 245.3C27.6 246.1 112.8 246.5 121.6 245.3C130.4 244.1 147.4 244.8 124.8 241.9C102.2 239 78.9 240.7 56.1 239C33.3 237.3 4.70001 238.9 1.30001 241.9Z" fill="#1B1C1E"/>
<path d="M119.4 191.8C119.4 191.8 128.4 187.7 129.9 166.7C131.4 145.7 122.2 128.8 121.3 102.2C120.4 75.6 135.4 60.6 147 69.2C158.6 77.8 141.2 94.6 144.4 129.3C147.6 163.9 148.5 198.9 121 207.9C121.1 207.9 116.4 201.4 119.4 191.8Z" fill="#513F3B"/>
<path d="M46.8 242C46.8 242 12.1 242 10 242C7.90001 242 5.30001 226.2 23.7 225.9C42.1 225.6 53.2 225.9 53.2 225.9L46.8 242Z" fill="#513F3B"/>
<path d="M14.9 242C14.9 242 13.9 238.2 16.7 235.5" stroke="#1B1C1E" stroke-miterlimit="10"/>
<path d="M21.5 242C21.5 242 21.5 238.9 22.9 237.5" stroke="#1B1C1E" stroke-miterlimit="10"/>
<path d="M34.5 16.9C34.5 16.9 22.3 -1.09999 14.4 0.600014C6.49999 2.30001 5.4 39.4 12.3 41.7C19.1 44.1 34.5 16.9 34.5 16.9Z" fill="#513F3B"/>
<path d="M70.3 18.2C70.3 18.2 86.4 6.59998 96.2 7.29998C106.1 7.89998 96 37.1 88.7 44.6C81.4 52.1 70.3 18.2 70.3 18.2Z" fill="#513F3B"/>
<path d="M25.3 79.9C25.3 79.9 12.4 72 10.3 55.5C8.2 39 15.7 12.9 51.7 12.9C87.7 12.9 94.5 43 91.9 58.5C89.5 73.2 82.1 77.8 82.1 77.8C82.1 77.8 90.1 95.9 94.1 106.5C97.2 114.7 98.7 123.1 97.5 132.9C97.5 132.9 109.5 150.7 117 165.5C124.2 179.7 130.2 215.3 123.7 239.4C123.3 241 121.8 242.1 120.2 242.1H25.5C17.1 242.1 7.3 228.3 15 173.6C15 173.6 11 164.2 14.5 144.7C18 125.2 25.3 79.9 25.3 79.9Z" fill="#FFE6BD"/>
<path d="M108.6 242C108.6 242 102.5 242 100.7 242H56.6C51.5 228.7 67 223.7 74.9 223.7C81 223.7 95 223.7 95 223.7C95 223.7 102.5 224 105.7 229.2C109.5 235.3 108.8 241.7 108.6 242Z" fill="#513F3B"/>
<path d="M36 176.9C32.3 179.5 28.9 181 26.5 181.9C23.9 182.8 21 182.2 19.1 180.1C16.5 177.3 14.9 173.5 14.9 173.5C14.9 173.5 12.3 167.4 13.1 154.9C13.1 154.9 13.4 146.7 24.8 144.2C33.3 142.3 37.9 146.4 37.9 146.4C37.7 148 37.4 149.6 37.1 151.4C36.1 157.4 37.3 167.8 37.9 172.6C38.1 174.2 37.4 175.9 36 176.9Z" fill="#513F3B"/>
<path d="M14.9 173.6C14.9 173.6 16.5 177.4 19.1 180.2C21 182.2 23.9 182.9 26.5 181.9C28.9 181 32.3 179.5 36 176.9C37.4 175.9 38.1 174.3 37.8 172.6C37.2 167.8 36.1 157.4 37 151.4C38.3 143.4 39.1 136.9 39.1 136.9" stroke="#1B1C1E" stroke-miterlimit="10"/>
<path d="M27 181.6C27 181.6 23 178.5 22.5 172.9" stroke="#1B1C1E" stroke-miterlimit="10"/>
<path d="M33.3 178.6C33.3 178.6 30.3 175.8 30 170.9" stroke="#1B1C1E" stroke-miterlimit="10"/>
<path d="M83 152C76 156.3 72.4 158.8 72.8 163.6C73.3 169.2 69 169.7 67.1 170.2C64.3 170.9 59 171.4 54.9 170.9C53.1 170.7 49.6 167.4 49.6 160C49.6 153.2 55.1 141.6 65.7 135.7C65.7 135.7 74.4 134 80.2 140.7C84 145.2 83 152 83 152Z" fill="#513F3B"/>
<path d="M97.5 132.9C97.5 132.9 96.2 143.7 86.7 149.7C77.2 155.7 72.2 158.1 72.7 163.7C73.2 169.3 68.9 169.8 67 170.3C64.2 171 58.9 171.5 54.8 171C53 170.8 49.5 167.5 49.5 160.1C49.5 153.3 55 141.7 65.6 135.8" stroke="#1B1C1E" stroke-miterlimit="10"/>
<path d="M61 171C61 171 56.1 169.9 56.4 162.4" stroke="#1B1C1E" stroke-miterlimit="10"/>
<path d="M67.1 170.2C67.1 170.2 63.9 168 64.3 162.4" stroke="#1B1C1E" stroke-miterlimit="10"/>
<path d="M107.5 167.9C107.5 167.9 98.5 156.8 84.4 164.8C71.4 172.2 68.2 206.3 79.3 223.6" stroke="#1B1C1E" stroke-miterlimit="10"/>
<path d="M56.7 242C51.6 228.7 67.1 223.7 75 223.7C81.1 223.7 95.1 223.7 95.1 223.7" stroke="#1B1C1E" stroke-miterlimit="10"/>
<path d="M63.8 242C63.8 242 61.3 238.1 63.8 235.5" stroke="#1B1C1E" stroke-miterlimit="10"/>
<path d="M69.5 242C69.5 242 68.9 237.6 70.6 236.1" stroke="#1B1C1E" stroke-miterlimit="10"/>
<path d="M51 76.9C51 76.9 33.2 73 25.3 62.1C17.4 51.2 21.9 35.6 23.8 33C25.7 30.5 27.7 21.4 53.6 22.6C73.9 23.6 81.3 34.5 82.5 41.8C83.6 48.4 81.9 60.7 74.4 66.7C63.8 75.2 51 76.9 51 76.9Z" fill="#513F3B"/>
<path d="M41.8 42.1C42.1 41.6 42.1 41.1 41.8 40.6C40.8 39.1 38.4 35.6 35.2 35.8C31.4 36 28.6 40.1 28.6 41.4C28.6 43.1 31.2 46.9 35.1 47.3C38.1 47.5 40.8 43.7 41.8 42.1Z" fill="#9BBEDC"/>
<path d="M35.1 45.6C36.867 45.6 38.3 43.675 38.3 41.3C38.3 38.925 36.867 37 35.1 37C33.333 37 31.9 38.925 31.9 41.3C31.9 43.675 33.333 45.6 35.1 45.6Z" fill="#1B1C1E"/>
<path d="M48.3 46.3C48.3 46.3 43 45.9 40 49C37 52.1 37.5 57.2 40.5 59.1C43.2 60.9 44.6 56.6 48.3 56.4C52 56.2 51.6 53.5 51.8 50.8C51.9 48.2 48.3 46.3 48.3 46.3Z" stroke="#1B1C1E" stroke-miterlimit="10"/>
<path d="M51.5 54.3C51.5 54.3 51.3 56.1 53.3 57C55.3 58 57 57.7 59.1 60.1C61.2 62.4 65.3 59.7 65.3 55.3C65.3 50.3 62 46.8 56 46.6C50 46.4 52 48.6 52 48.6L51.5 54.3Z" stroke="#1B1C1E" stroke-miterlimit="10"/>
<path d="M43.7 58.8C43.7 58.8 46.2 62.3 50.4 62.7C54.3 63.1 57.8 60.7 58.4 59.5" stroke="#1B1C1E" stroke-miterlimit="10"/>
<path d="M51.8 50.9C51.8 50.9 47.5 48.2 46.9 45.9C46.3 43.7 47.5 42.3 52.5 42.5C56.6 42.7 58.4 44.3 56.8 46.9C55.2 49.2 51.8 50.9 51.8 50.9Z" fill="#1B1C1E" stroke="#1B1C1E" stroke-miterlimit="10"/>
<g opacity="0.88">
<path d="M91.2 146.7C91.3 146.7 91.3 146.7 91.4 146.8C91.4 146.8 91.3 146.8 91.2 146.7Z" fill="#443730"/>
<path d="M85.4 151.2L85.2 151C85.4 151.1 85.4 151.2 85.4 151.2Z" fill="#443730"/>
<path d="M94.799 141.2C94.7 141.1 94.7 141.1 94.799 141.2C94.7 141.1 94.7 141.1 94.799 141.2Z" fill="#443730"/>
<path d="M95.3 140.9C95.3 140.9 95.3 140.8 95.4 140.8L95.3 140.9C95.5 140.8 95.4 140.9 95.3 140.9Z" fill="#443730"/>
<path d="M99.4 139L99.6 139.1C99.5 139.1 99.4 139.1 99.4 139Z" fill="#443730"/>
<path d="M94.5 141.1C94.6 141.1 94.6 141.1 94.7 141.1C94.6 141.1 94.5 141.2 94.5 141.1Z" fill="#443730"/>
<path d="M91.1 146.6C91.199 146.7 91.199 146.7 91.1 146.6C91.199 146.7 91.199 146.7 91.1 146.6Z" fill="#443730"/>
<path d="M82.7 152.2C82.6 152.2 82.6 152.2 82.5 152.2C82.6 152.1 82.7 152.2 82.7 152.2Z" fill="#443730"/>
<path d="M94.2 143C94.7 143.4 94.4 142.8 94.9 143.2C94.7 143.2 94.6 143.3 94.8 143.5C95.2 143.6 94.9 143.2 95.4 143.5L95.1 143.6C95.3 143.9 95.7 144 95.6 144C94.9 143.7 95.5 144.7 95.3 144.8H95.4L95.5 145.3C95.5 145.3 95.4 145.3 95.4 145.2C95.6 145.5 95.7 145.9 95.5 146.1C95.1 145.9 94.8 146.7 94.5 146.5C94.7 146.5 94.7 146.4 94.7 146.2L94.3 145.9C94.1 146.1 94.7 146.2 94.3 146.2C93.8 145.7 94.5 145.9 94.6 145.7C94.4 145.6 94.3 145.6 94.1 145.7C94.3 145.4 94.3 145 95 145.3C94.9 145.1 94.7 145 94.6 145C95.1 145.1 94.4 144.6 94.8 144.7C94.2 144.4 94.2 144.9 93.8 144.8C94 145.4 93.4 145.4 93.1 145.6C93.5 145.9 93.9 146 94.1 146.3C94.1 146.8 93.7 146.4 93.3 146.4C93.3 146.7 93.9 147 93.7 147.3H94.1C94.5 148 93.7 147.3 93.7 147.5C93.6 147.3 93.5 147.2 93.6 147.1C93.4 146.9 93.2 147 93.2 147V146.9C92.9 146.7 92.6 146.5 92.6 146.8C93 147 92.7 147.2 92.8 147.3H92.9C92.7 147.3 92.6 147.5 92.4 147.5L92.5 147.6C92.3 147.6 91.9 147.2 91.8 147.5C92 147.6 92.5 147.9 92.3 148C92.5 148.2 92.7 148.1 92.8 147.8C92.7 148 93 148.5 93.2 148.3C93.4 148.6 92.9 148.3 92.9 148.6C92.8 148.5 92.7 148.4 92.6 148.3C93 148.7 92.3 148.7 92 148.4H92.4C92.1 148.1 91.7 148.1 91.6 147.8C92 148.4 90.9 148 91.2 148.5L91 148.2C90.8 148.7 90 148.3 89.5 148.5C89.8 148.6 90.2 149.1 90.3 148.8C90 149.2 90.6 149.5 90.7 149.8C90.6 150.2 90.1 149.4 89.9 149.3H90.2C89.4 148.8 89.5 150 88.8 149.9C88.9 150.1 89 149.9 89.1 150C89.2 150.5 88.9 150.1 88.7 150C88.6 150.2 88.4 150.5 88.8 150.9C88.7 151.2 88.6 150.6 88.4 150.5V150.6C88.2 150.5 88 150.4 87.9 150.2C87.8 150.5 87.7 150.8 87.9 151.3C87.4 151.5 87.1 150.3 86.7 150.3C86.7 150.6 86.9 150.6 87.1 150.8L86.8 150.9C87.2 151.4 87.3 151 87.6 151.6C87 151.1 87.2 151.6 86.6 151.4V151.3C86.2 151 86 151.4 85.8 151.5C86 151.7 86.2 151.6 86.4 151.6C86.3 151.9 85.6 152 85.2 151.6C85.1 151.8 84.9 152.1 85.2 152.2C84.8 152.5 84.6 151.5 84.3 151.8L84.5 152.2C84.3 153 83.4 152 83.2 152.7L83 152.2C83 152.5 82.9 152.6 82.9 152.9L83.2 153C83.2 153.5 82.8 152.6 82.7 153.1C82.6 152.9 82.7 152.5 82.6 152.3C83.6 152.3 84.2 151.2 85.2 151.3C85.2 151.4 85.2 151.5 85.3 151.6C85.3 151.4 85.6 151.5 85.4 151.2C85.7 151.2 85.6 150.5 85.7 150.4C86 150.7 86.1 150 86.3 150.7L86.2 150.3C86.4 150.5 86.5 150.8 86.6 150.9C86.7 150.8 86.6 150.5 86.4 150.5C86.8 150 87.5 149.7 88.2 149.5L87.9 149.3C87.9 149.1 88.7 149.4 88.1 148.8C88.5 148.9 88.7 148.1 89.2 148.8C88.9 148 89.6 148.1 90 147.9C90.4 148.5 90.4 147.8 90.7 148C90.4 147.5 90.1 147.8 89.8 147.5C90.7 147.8 90.3 146.2 91.4 147.1C91.4 147 91.4 147 91.3 147C91.4 146.9 91.3 146.7 91.3 146.6C91.5 146.7 91.5 147 91.7 146.9C91.8 146.7 91.4 146.5 91.4 146.4C91.9 146.4 92.3 146.1 92.8 146.5C92.7 146.3 92.6 146 92.4 146C93.1 145.9 92.6 145.6 93.2 145.4C93.1 145.5 92.7 145.1 92.7 145.4C92.2 144.7 93.3 144.9 93.2 144.3L93.7 144.5C93.9 144.4 93.5 144 93.3 144.1C93.3 143.6 93.6 143.6 93.8 143.3C93.8 143.2 93.7 143.2 93.7 143.3L93.9 142.9C94 142.9 94.3 142.9 94.6 143.1C94.4 142.7 94.2 142.7 94.2 143Z" fill="#443730"/>
<path d="M93.7 147.7C93.6 147.6 93.6 147.5 93.6 147.5C93.7 147.5 93.7 147.6 93.7 147.7Z" fill="#443730"/>
<path d="M97.5 139.2C98.2 139.6 97.3 139.4 97.4 139.7C97.6 139.6 98 139.8 98.2 139.9C97.2 139.7 98.3 140.3 97.9 140.6C98.2 140.7 98.3 140.6 98.7 140.7C98.4 140.8 98.1 141.2 97.5 141C97.3 141.4 97.3 141.8 97.1 142C97.5 141.8 97.6 142.2 98.2 142.2C97.5 142.2 96.4 142.5 95.5 142.5C96 142.9 96 142.9 96.6 143.2C96.7 143.9 96 143 95.9 143.5V143.2C95.6 143.3 95.1 143 94.7 142.8L95.1 142.4C94.7 142.2 94.6 142.5 94.4 142.5C93.9 142.4 94.3 142.1 93.9 141.9C94.2 142 94.3 141.8 94.5 141.7L94.3 141.6C94.2 141.3 94.8 141.4 94.9 141.2L94.8 141.1C95.1 141.2 95.4 141.2 95.5 141.2L95.4 141.3C96 141.4 96.5 141.1 96.9 141.7L97 141.1C96.4 140.9 95.6 140.6 95.3 140.8L95.1 140.7C94.9 140.3 95.8 140.3 96.2 140.7C97.6 141.1 96.6 139.9 97.3 139.8C97 139.6 96.7 139.8 96.4 139.8C96.3 139.9 96.3 140 96.6 140.1C96.2 140.5 95.5 139.5 95.4 140.1C95.4 140.4 96.1 140.1 96 140.5L94.9 140.3C95 140.1 95.3 140 95.5 139.8C96.1 139.4 96.3 138.9 96.4 138.6C96.5 138.3 96.4 138 96.4 138C97.1 136.4 97.6 134.7 98 133C98.2 132.5 98.2 132.3 99.3 132.2C99.5 132.3 99.4 132.7 99.8 132.6C99.4 132.6 99.2 132.8 99.2 133.1C99.6 133.2 99.4 132.9 99.5 132.9V133C99.7 133 99.8 133 99.9 132.9C100.4 133.3 100.2 134 99.4 134.1C99.7 134.4 100 134 100.4 133.9C100.5 134.9 100.3 135.6 100.1 136.6C99.4 136.4 99.6 136.6 99.2 136.6L99.4 136.8C99.3 136.7 98.8 136.7 98.7 136.5C99.1 137.2 97.6 136.9 97.2 137.1L97.6 137.2C97.4 137.5 97.4 137.6 97.1 137.7C97.6 138.4 97.3 137.3 98.1 137.7L97.9 137.8C98.2 137.8 98.8 137.9 99.1 137.8C98.4 138.1 99.1 138.6 98.5 138.9C98.9 139 99.3 138.6 99.4 138.5C99.4 138.7 99 138.9 99.3 139.1L98.8 139C98.6 139.3 99.3 139.1 99.5 139.3C99.3 139.9 98.1 138.8 97.5 139.2Z" fill="#443730"/>
<path d="M93.9 145.9C93.9 145.8 94 145.8 94.1 145.7C94 145.8 94 145.8 93.9 145.9Z" fill="#443730"/>
<path d="M95.6 145.3C95.7 145.3 95.7 145.4 95.8 145.4C95.7 145.3 95.7 145.3 95.6 145.3Z" fill="#443730"/>
<path d="M96.3 145.5C96.1 145.3 96.1 145.4 95.8 145.3C96 145.4 96.1 145.1 96.3 145.5Z" fill="#443730"/>
<path d="M74 156.6C73.9 156.5 73.7 156.3 73.8 156.2L74.1 156.3L74 156.6Z" fill="#443730"/>
<path d="M74.6 156L74.9 155.8L75.2 156.5C74.8 156.4 74.9 155.9 74.6 156Z" fill="#443730"/>
<path d="M75.4 155.5L75.3 155.3C75.3 155.4 75.4 155.4 75.4 155.5Z" fill="#443730"/>
<path d="M75.4 155.8L75.6 156.3L75.2 156L75.3 155.9C75.3 155.7 75.4 155.6 75.4 155.6L75.6 155.9C75.5 155.8 75.4 155.7 75.4 155.8Z" fill="#443730"/>
<path d="M76.3 154.7C76.3 154.9 76.4 155.1 76.5 155.3C76.2 155.5 76.1 154.8 75.9 155.1C76.3 155.4 75.8 155.4 75.7 155.7C75.7 155.2 75.8 154.9 76.1 154.7L76.2 155C76.3 155.1 76.2 154.9 76.3 154.7Z" fill="#443730"/>
<path d="M77.9 155.3L77.6 154.9C77.6 155.1 77.2 155.2 77.3 155.6C77.2 155.6 77.1 155.3 77 155.2C76.9 155.5 76.9 155.6 76.7 155.3C77.2 154.9 77 154.8 77.5 154.6C77.5 154.5 77.4 154.5 77.4 154.6L77.7 154.3C77.8 154.9 78.2 154.9 77.9 155.3Z" fill="#443730"/>
<path d="M78.3 154.9C78.1 154.9 77.8 154.5 77.9 154.2C78.1 154.3 78.3 154.4 78.5 154.5C78.4 154.5 78.2 154.5 78.3 154.9Z" fill="#443730"/>
<path d="M78.7 154.8C78.7 154.5 78.8 154 79.1 154.4C78.8 154.4 79 155.1 78.7 154.8Z" fill="#443730"/>
<path d="M80.3 153.9L79.9 154.3C80 154.9 80.2 154.4 80.4 154.7C80 154.9 80.1 154.7 79.7 154.4C79.6 154.5 79.3 154.2 79.2 154.1C79.9 154.4 79.6 153 80.3 153.9Z" fill="#443730"/>
<path d="M79.5 154.8L79.4 154.5L79.7 154.7L79.5 154.8Z" fill="#443730"/>
<path d="M81.3 153C81.4 152.2 82 153.3 82.2 152.9C82.2 152.9 82.2 152.8 82.1 152.7H82.4V152.5C82.5 152.9 82.8 153 83.1 153.2C83 153.7 82.8 152.7 82.7 153.3C82.8 153.5 83 153.7 83.1 153.9C82.9 153.8 82.7 153.5 82.6 153.3C82.4 153.3 82.5 153.5 82.6 153.7C82.3 153.5 82.1 152.9 81.9 153.1C81.8 153.5 82.2 153.6 81.8 153.6C81.8 152.9 81.5 153.8 81.2 153.4C81 153.6 80.9 154 81 154.3C80.9 153.8 80.5 153.4 80.3 153.3L80.8 153.6V153C80.9 153.3 81.1 153.2 81.3 153Z" fill="#443730"/>
<path d="M82.9 154L83 154.1L82.9 154Z" fill="#443730"/>
<path d="M80.8 154.6L80.9 154.7V154.8L80.8 154.6Z" fill="#443730"/>
<path d="M83.2 154.3C83.1 154.3 83.1 154.2 83.1 154.1L83.2 154.3Z" fill="#443730"/>
<path d="M83.3 153.8L83.4 153.4L83.5 153.7L83.3 153.8Z" fill="#443730"/>
<path d="M88.7 150.9C88.7 151.2 88.4 150.8 88.2 150.6C88.4 150.3 88.4 150.9 88.7 150.9Z" fill="#443730"/>
<path d="M92.1 149C92.1 149.4 91.7 149.2 91.5 149.3C91.5 149 91.8 149 92.1 149Z" fill="#443730"/>
<path d="M94.3 148.9C94.2 148.8 94.1 148.8 94.1 148.7L93.4 148.3C93.5 147.9 94.1 148.6 94.3 148.9Z" fill="#443730"/>
<path d="M95.7 147.5L95.3 147.6L95.4 147.5C95.1 147.4 95 147.3 94.7 147.2C95 147.1 95.3 147.1 95.7 147.5Z" fill="#443730"/>
<path d="M94.4 147.2C94.4 147.2 94.5 147.2 94.5 147.1C94.6 147.3 94.6 147.4 94.4 147.2Z" fill="#443730"/>
<path d="M94.6 147.1C94.6 147.1 94.7 147.1 94.6 147.1C94.6 147.1 94.6 147.2 94.6 147.1C94.5 147.1 94.5 147.1 94.6 147.1Z" fill="#443730"/>
<path d="M95.6 147L96 146.6V146.9C95.6 146.7 96 147.3 95.6 147Z" fill="#443730"/>
<path d="M97 144.5L96.6 144.2C96.7 143.9 97.8 144 97.3 143.5C97.5 143.8 97.9 143.5 97.8 143.9C97.3 143.8 97 144.2 97 144.5Z" fill="#443730"/>
<path d="M97.1 143.1C97 143.1 96.9 143 96.8 142.9C96.8 142.8 97.1 142.8 97.2 142.9C96.6 142.6 97.4 143.2 97.1 143.1Z" fill="#443730"/>
<path d="M97.8 141.7C97.7 141.8 97.6 141.9 97.6 141.7C97.8 141.5 98.2 141.8 98.5 141.8C98.7 142.1 98 142 97.8 141.7Z" fill="#443730"/>
<path d="M95.6 138.4C96 138.6 95.8 138.7 95.7 138.7C95.8 138.7 95.7 138.5 95.6 138.4Z" fill="#443730"/>
<path d="M98.7 139.5V139.6L98.2 139.5H98.7Z" fill="#443730"/>
<path d="M99.6 138L100 137.9L99.9 138.2L99.6 138Z" fill="#443730"/>
<path d="M99.6 137.6L99.7 137.3L99.8 137.4C99.9 137.7 99.6 137.5 99.6 137.6Z" fill="#443730"/>
<path d="M99.9 136.8C99.9 136.8 99.9 136.9 100 136.9L99.7 137.1L99.9 136.8Z" fill="#443730"/>
<path d="M98.3 132C97.9 132 98.2 131.8 98.1 131.8C98.2 131.7 98.7 131.9 98.3 132Z" fill="#443730"/>
</g>
<path d="M62.5 42.5C62.3 42 62.3 41.4 62.7 41C63.8 39.6 66.6 36.4 69.8 36.9C73.5 37.5 75.9 41.9 75.8 43.1C75.6 44.8 72.7 48.3 68.7 48.2C65.5 48.3 63.3 44.2 62.5 42.5Z" fill="#9BBEDC"/>
<path d="M72.329 42.76C72.583 40.398 71.364 38.331 69.607 38.142C67.85 37.953 66.219 39.714 65.965 42.075C65.711 44.436 66.93 46.504 68.687 46.693C70.444 46.882 72.075 45.121 72.329 42.76Z" fill="#1B1C1E"/>
</svg>
