<svg width="41" height="35" viewBox="0 0 41 35" fill="none" xmlns="http://www.w3.org/2000/svg">
<path d="M40.0972 5.47632C39.6371 3.32072 38.2817 1.62303 36.5607 1.0469C33.4414 0 20.933 0 20.933 0C20.933 0 8.42471 0 5.30526 1.0469C3.58429 1.62313 2.22887 3.32072 1.76884 5.47632C0.932999 9.38346 0.932999 17.5354 0.932999 17.5354C0.932999 17.5354 0.932999 25.6873 1.76884 29.5944C2.22887 31.75 3.58429 33.377 5.30526 33.9531C8.42471 35 20.933 35 20.933 35C20.933 35 33.4413 35 36.5607 33.9531C38.2817 33.377 39.6371 31.75 40.0972 29.5944C40.933 25.6873 40.933 17.5354 40.933 17.5354C40.933 17.5354 40.933 9.38346 40.0972 5.47632V5.47632ZM16.8421 24.9367V10.134L27.2966 17.5355L16.8421 24.9367V24.9367Z" fill="white"/>
</svg>
